<?xml version="1.0" encoding="UTF-8" standalone="no"?>
<svg
   xmlns:dc="http://purl.org/dc/elements/1.1/"
   xmlns:cc="http://creativecommons.org/ns#"
   xmlns:rdf="http://www.w3.org/1999/02/22-rdf-syntax-ns#"
   xmlns:svg="http://www.w3.org/2000/svg"
   xmlns="http://www.w3.org/2000/svg"
   xmlns:sodipodi="http://sodipodi.sourceforge.net/DTD/sodipodi-0.dtd"
   xmlns:inkscape="http://www.inkscape.org/namespaces/inkscape"
   version="1.1"
   x="0px"
   y="0px"
   viewBox="0 0 22.750423 24.631887"
   enable-background="new 0 0 24 24"
   xml:space="preserve"
   id="svg2"
   inkscape:version="0.91 r13725"
   sodipodi:docname="console.svg"
   width="22.750423"
   height="24.631887"><metadata
     id="metadata30"><rdf:RDF><cc:Work
         rdf:about=""><dc:format>image/svg+xml</dc:format><dc:type
           rdf:resource="http://purl.org/dc/dcmitype/StillImage" /><dc:title></dc:title></cc:Work></rdf:RDF></metadata><defs
     id="defs28" /><sodipodi:namedview
     pagecolor="#ffffff"
     bordercolor="#666666"
     borderopacity="1"
     objecttolerance="10"
     gridtolerance="10"
     guidetolerance="10"
     inkscape:pageopacity="0"
     inkscape:pageshadow="2"
     inkscape:window-width="2045"
     inkscape:window-height="1082"
     id="namedview26"
     showgrid="false"
     inkscape:zoom="7.8666667"
     inkscape:cx="11.381525"
     inkscape:cy="-6.0208241"
     inkscape:window-x="0"
     inkscape:window-y="0"
     inkscape:window-maximized="0"
     inkscape:current-layer="svg2"
     fit-margin-top="0"
     fit-margin-left="0"
     fit-margin-right="0"
     fit-margin-bottom="0" /><g
     id="g4"
     transform="matrix(0.65788087,0,0,0.65788087,-0.0723669,-0.0723669)"
     style="fill:#000000;fill-opacity:0.47058824"><g
       id="g6"
       style="fill:#000000;fill-opacity:0.47058824"><path
         d="m 20.24,23.89 -16.48,0 c -2.013,0 -3.65,-1.637 -3.65,-3.65 l 0,-16.48 c 0,-2.013 1.638,-3.65 3.65,-3.65 l 16.48,0 c 2.013,0 3.65,1.637 3.65,3.65 l 0,16.48 c 10e-4,2.013 -1.637,3.65 -3.65,3.65 z M 3.76,1.409 c -1.296,0 -2.35,1.054 -2.35,2.35 l 0,16.481 c 0,1.296 1.054,2.35 2.35,2.35 l 16.48,0 c 1.296,0 2.35,-1.054 2.35,-2.35 l 0,-16.48 c 0,-1.296 -1.054,-2.35 -2.35,-2.35 l -16.48,0 z"
         id="path8"
         inkscape:connector-curvature="0"
         style="fill:#000000;fill-opacity:0.47058824" /></g><g
       id="g10"
       style="fill:#000000;fill-opacity:0.47058824"><g
         id="g12"
         style="fill:#000000;fill-opacity:0.47058824"><g
           id="g14"
           style="fill:#000000;fill-opacity:0.47058824"><path
             d="m 3.742,10.74 c -0.166,0 -0.333,-0.063 -0.46,-0.19 -0.254,-0.254 -0.254,-0.666 0,-0.919 L 5.922,6.993 3.282,4.354 c -0.254,-0.253 -0.254,-0.665 0,-0.919 0.254,-0.254 0.666,-0.254 0.92,0 l 3.099,3.098 c 0.121,0.122 0.19,0.287 0.19,0.459 0,0.172 -0.069,0.338 -0.19,0.459 L 4.202,10.55 c -0.127,0.127 -0.294,0.19 -0.46,0.19 z"
             id="path16"
             inkscape:connector-curvature="0"
             style="fill:#000000;fill-opacity:0.47058824" /></g><g
           id="g18"
           style="fill:#000000;fill-opacity:0.47058824"><path
             d="m 11.583,10.74 -3.333,0 C 7.891,10.74 7.6,10.449 7.6,10.09 7.6,9.731 7.891,9.44 8.25,9.44 l 3.333,0 c 0.359,0 0.65,0.291 0.65,0.65 0,0.359 -0.291,0.65 -0.65,0.65 z"
             id="path20"
             inkscape:connector-curvature="0"
             style="fill:#000000;fill-opacity:0.47058824" /></g></g></g></g><path
     inkscape:connector-curvature="0"
     style="color:#000000;fill:#000000;fill-opacity:0.47058824"
     d="m 22.508743,10.31373 c -0.134609,0 -0.24698,0.107135 -0.246681,0.241746 l 0.005,2.22202 c 9.39e-4,0.424604 -0.345037,0.769644 -0.769643,0.769644 -0.424606,0 -0.769644,-0.345039 -0.769644,-0.769644 l 0,-0.592117 c 0,-0.686187 -0.557084,-1.238338 -1.243271,-1.238338 -0.686188,0 -1.241441,0.552153 -1.243272,1.238338 l -0.005,1.849103 c -1.661962,0.123825 -2.970037,1.508298 -2.970037,3.201917 l 0,4.183706 c 0,1.775099 1.436684,3.211783 3.211784,3.211783 1.775099,0 3.216717,-1.436684 3.216717,-3.211783 l 0,-4.183706 c 0,-1.693619 -1.313007,-3.078091 -2.97497,-3.201917 l 0,-1.849103 c 0,-0.419947 0.344763,-0.759776 0.764711,-0.759776 0.419948,0 0.763275,0.339844 0.759776,0.759776 l -0.005,0.592117 c -0.0058,0.693775 0.564272,1.258071 1.258073,1.258071 0.6938,0 1.253138,-0.564272 1.253138,-1.258071 l 0,-2.22202 c 0,-0.134609 -0.107136,-0.241746 -0.241748,-0.241746 z m -4.030764,4.855484 c 0.266265,0 0.483495,0.212295 0.483495,0.47856 l 0,1.460351 c 0,0.266265 -0.21723,0.483494 -0.483495,0.483494 -0.266265,0 -0.483494,-0.217229 -0.483494,-0.483494 l 0,-1.460351 c 0,-0.266265 0.217229,-0.47856 0.483494,-0.47856 z m -2.269463,3.492999 4.54386,0 c 0.133132,0 0.241747,0.108616 0.241747,0.241748 0,0.133132 -0.108616,0.241747 -0.241747,0.241747 l -4.54386,0 c -0.133133,0 -0.241748,-0.108616 -0.241748,-0.241747 0,-0.133133 0.108616,-0.241748 0.241748,-0.241748 z"
     id="path4" /></svg>