<?xml version="1.0" encoding="UTF-8" standalone="no"?>
<svg
   xmlns:dc="http://purl.org/dc/elements/1.1/"
   xmlns:cc="http://creativecommons.org/ns#"
   xmlns:rdf="http://www.w3.org/1999/02/22-rdf-syntax-ns#"
   xmlns:svg="http://www.w3.org/2000/svg"
   xmlns="http://www.w3.org/2000/svg"
   xmlns:xlink="http://www.w3.org/1999/xlink"
   xmlns:sodipodi="http://sodipodi.sourceforge.net/DTD/sodipodi-0.dtd"
   xmlns:inkscape="http://www.inkscape.org/namespaces/inkscape"
   width="105px"
   height="57px"
   viewBox="0 0 105 57"
   version="1.1"
   id="svg2"
   inkscape:version="0.91 r13725"
   sodipodi:docname="ess-logo.svg"
   inkscape:export-filename="/home/pospelov/Downloads/ess-logo.png"
   inkscape:export-xdpi="221.58592"
   inkscape:export-ydpi="221.58592">
  <metadata
     id="metadata47">
    <rdf:RDF>
      <cc:Work
         rdf:about="">
        <dc:format>image/svg+xml</dc:format>
        <dc:type
           rdf:resource="http://purl.org/dc/dcmitype/StillImage" />
        <dc:title></dc:title>
      </cc:Work>
    </rdf:RDF>
  </metadata>
  <sodipodi:namedview
     pagecolor="#ffffff"
     bordercolor="#666666"
     borderopacity="1"
     objecttolerance="10"
     gridtolerance="10"
     guidetolerance="10"
     inkscape:pageopacity="0"
     inkscape:pageshadow="2"
     inkscape:window-width="1659"
     inkscape:window-height="710"
     id="namedview45"
     showgrid="false"
     inkscape:zoom="2.8"
     inkscape:cx="52.5"
     inkscape:cy="28.5"
     inkscape:window-x="0"
     inkscape:window-y="0"
     inkscape:window-maximized="0"
     inkscape:current-layer="svg2" />
  <defs
     id="defs4">
    <polygon
       id="path-1"
       points="0 55.8062284 103.859203 55.8062284 103.859203 0.16199308 0 0.16199308" />
  </defs>
  <g
     id="Comp"
     transform="translate(0.35714331,1.071429)"
     style="fill:#009edd;fill-opacity:1;fill-rule:evenodd;stroke:none;stroke-width:1">
    <g
       id="logo-blue"
       transform="translate(-41,-26)"
       style="fill:#009edd;fill-opacity:1">
      <g
         id="Page-1"
         transform="translate(41,26)"
         style="fill:#009edd;fill-opacity:1">
        <polygon
           id="Fill-1"
           points="64.270199,17.395073 62.185164,17.395073 62.185164,18.837896 64.759793,18.837896 64.759793,19.749592 61.242385,19.749592 61.242385,14.112775 64.759793,14.112775 64.759793,15.024471 62.185164,15.024471 62.185164,16.498685 64.270199,16.498685 "
           style="fill:#009edd;fill-opacity:1" />
        <g
           id="Group-46"
           transform="translate(0,0.031779)"
           style="fill:#009edd;fill-opacity:1">
          <path
             d="m 67.740855,18.854134 c 0.666026,0 1.113207,-0.227875 1.113207,-0.953356 l 0,-3.81982 0.960789,0 0,3.81982 c 0,1.353107 -0.723739,1.890823 -2.073996,1.890823 -1.338056,0 -2.053661,-0.537716 -2.053661,-1.890823 l 0,-3.81982 0.960015,0 0,3.81982 c 0,0.7342 0.439821,0.953356 1.093646,0.953356 z"
             id="Fill-2"
             inkscape:connector-curvature="0"
             style="fill:#009edd;fill-opacity:1" />
          <path
             d="m 73.10495,14.992711 -1.172856,0 0,1.889661 1.188931,0 c 0.661184,0 0.904432,-0.389868 0.904432,-0.969633 0,-0.618713 -0.302317,-0.920028 -0.920507,-0.920028 l 0,0 z m -0.02324,2.803294 -1.149616,0 0,1.921827 -0.951687,0 0,-5.636816 2.124543,0 c 1.287121,0 1.905505,0.528221 1.905505,1.815446 0,0.848526 -0.309095,1.337025 -0.88797,1.621675 l 0.88797,2.199695 -1.050845,0 -0.772544,-1.921827 -0.105356,0 z"
             id="Fill-4"
             inkscape:connector-curvature="0"
             style="fill:#009edd;fill-opacity:1" />
          <path
             d="m 79.294209,16.938741 c 0,-1.311447 -0.253512,-2.028208 -1.287314,-2.028208 -1.034771,0 -1.286347,0.716761 -1.286347,2.028208 0,1.312802 0.243248,1.947598 1.286347,1.947598 1.041743,0 1.287314,-0.618519 1.287314,-1.947598 m -3.559046,0 c 0,-1.888111 0.528328,-2.948623 2.271732,-2.948623 1.744372,0 2.273862,1.060512 2.273862,2.948623 0,1.907487 -0.52949,2.869563 -2.273862,2.869563 -1.743404,0 -2.271732,-0.978352 -2.271732,-2.869563"
             id="Fill-6"
             inkscape:connector-curvature="0"
             style="fill:#009edd;fill-opacity:1" />
          <path
             d="m 83.299972,17.095056 c 0.642592,0 0.944715,-0.416609 0.944715,-1.100235 0,-0.675876 -0.302123,-0.993855 -0.944715,-0.993855 l -1.083769,0 0,2.09409 1.083769,0 z m -1.083769,0.920028 0,1.702671 -0.952656,0 0,-5.636817 2.044559,0 c 1.278406,0 1.913832,0.633246 1.913832,1.913883 0,1.27928 -0.635426,2.020263 -1.913832,2.020263 l -1.091903,0 z"
             id="Fill-8"
             inkscape:connector-curvature="0"
             style="fill:#009edd;fill-opacity:1" />
          <polygon
             id="Fill-10"
             points="89.154726,17.363294 87.069691,17.363294 87.069691,18.806118 89.643352,18.806118 89.643352,19.717813 86.126138,19.717813 86.126138,14.080996 89.643352,14.080996 89.643352,14.992692 87.069691,14.992692 87.069691,16.466907 89.154726,16.466907 "
             style="fill:#009edd;fill-opacity:1" />
          <path
             d="m 91.662521,17.68885 1.652186,0 -0.624194,-2.729855 -0.385594,0 -0.642398,2.729855 z m -0.09761,-3.607834 1.880521,0 1.327792,5.636816 -0.960015,0 -0.309095,-1.107792 -2.045527,0 -0.274622,1.107792 -0.96292,0 1.343866,-5.636816 z"
             id="Fill-12"
             inkscape:connector-curvature="0"
             style="fill:#009edd;fill-opacity:1" />
          <polygon
             id="Fill-14"
             points="100.02582,19.717813 98.519665,19.717813 96.678652,15.270173 96.539791,15.270173 96.539791,19.717813 95.587136,19.717813 95.587136,14.080996 97.135128,14.080996 98.924819,18.529024 99.065035,18.529024 99.065035,14.080996 100.02582,14.080996 "
             style="fill:#009edd;fill-opacity:1" />
          <path
             d="m 64.337092,24.727837 c 0,0 -1.012693,-0.130215 -1.482726,-0.130215 -0.539367,0 -0.864924,0.196097 -0.864924,0.618713 0,0.489467 0.220201,0.59546 1.108171,0.920803 1.009594,0.375529 1.431986,0.660567 1.431986,1.638726 0,1.1729 -0.650533,1.711391 -1.788917,1.711391 -0.621482,0 -1.720164,-0.212567 -1.720164,-0.212567 l 0.09742,-0.862478 c 0,0 1.033802,0.138547 1.614614,0.138547 0.536075,0 0.837423,-0.204429 0.837423,-0.750284 0,-0.440443 -0.195799,-0.562325 -0.944715,-0.822366 -1.221468,-0.449163 -1.596604,-0.734201 -1.596604,-1.745495 0,-1.066326 0.741945,-1.571294 1.825714,-1.571294 0.626324,0 1.553609,0.204041 1.553609,0.204041 l -0.07088,0.862478 z"
             id="Fill-16"
             inkscape:connector-curvature="0"
             style="fill:#009edd;fill-opacity:1" />
          <path
             d="m 67.599961,26.773794 c 0.644723,0 0.946846,-0.41564 0.946846,-1.100623 0,-0.676263 -0.302123,-0.99463 -0.946846,-0.99463 l -1.082607,0 0,2.095253 1.082607,0 z m -1.082607,0.91964 0,1.704609 -0.953624,0 0,-5.639917 2.044559,0 c 1.278987,0 1.913445,0.636346 1.913445,1.915045 0,1.27928 -0.634458,2.020263 -1.913445,2.020263 l -1.090935,0 z"
             id="Fill-18"
             inkscape:connector-curvature="0"
             style="fill:#009edd;fill-opacity:1" />
          <path
             d="m 71.11001,27.367975 1.65451,0 -0.628648,-2.72908 -0.38327,0 -0.642592,2.72908 z m -0.09819,-3.609772 1.881296,0 1.32876,5.639917 -0.960984,0 -0.311031,-1.108955 -2.043397,0 -0.277527,1.108955 -0.961177,0 1.34406,-5.639917 z"
             id="Fill-20"
             inkscape:connector-curvature="0"
             style="fill:#009edd;fill-opacity:1" />
          <polygon
             id="Fill-22"
             points="75.034838,29.398043 75.034838,23.75832 75.986525,23.75832 75.986525,28.476465 78.171106,28.476465 78.171106,29.398043 "
             style="fill:#009edd;fill-opacity:1" />
          <polygon
             id="Fill-24"
             points="79.073311,29.398043 79.073311,23.75832 80.025966,23.75832 80.025966,28.476465 82.208998,28.476465 82.208998,29.398043 "
             style="fill:#009edd;fill-opacity:1" />
          <path
             d="m 84.113806,27.367975 1.653348,0 -0.627486,-2.72908 -0.382108,0 -0.643754,2.72908 z m -0.09819,-3.609772 1.881296,0 1.327597,5.639917 -0.960595,0 -0.310257,-1.108955 -2.044559,0 -0.27559,1.108955 -0.96079,0 1.342898,-5.639917 z"
             id="Fill-26"
             inkscape:connector-curvature="0"
             style="fill:#009edd;fill-opacity:1" />
          <polygon
             id="Fill-28"
             points="88.90931,24.678638 87.346405,24.678638 87.346405,23.758223 91.417123,23.758223 91.417123,24.678638 89.869324,24.678638 89.869324,29.397946 88.90931,29.397946 "
             style="fill:#009edd;fill-opacity:1" />
          <mask
             id="mask-2"
             style="fill:#ffffff">
            <use
               xlink:href="#path-1"
               id="use27"
               x="0"
               y="0"
               width="100%"
               height="100%" />
          </mask>
          <g
             id="Clip-31"
             style="fill:#009edd;fill-opacity:1" />
          <polygon
             id="Fill-30"
             mask="url(#mask-2)"
             points="92.924097,23.758145 91.962533,23.758145 91.962533,29.397869 92.924097,29.397869 "
             style="fill:#009edd;fill-opacity:1" />
          <path
             d="m 97.451195,26.619009 c 0,-1.312415 -0.252543,-2.028983 -1.287508,-2.028983 -1.03264,0 -1.286346,0.716568 -1.286346,2.028983 0,1.311446 0.245571,1.947986 1.286346,1.947986 1.043099,0 1.287508,-0.620263 1.287508,-1.947986 m -3.560014,0 c 0,-1.891211 0.531039,-2.950561 2.272506,-2.950561 1.743598,0 2.2727,1.05935 2.2727,2.950561 0,1.905938 -0.529102,2.868401 -2.2727,2.868401 -1.741467,0 -2.272506,-0.977965 -2.272506,-2.868401"
             id="Fill-32"
             mask="url(#mask-2)"
             inkscape:connector-curvature="0"
             style="fill:#009edd;fill-opacity:1" />
          <polygon
             id="Fill-33"
             mask="url(#mask-2)"
             points="103.85928,29.397946 102.35312,29.397946 100.51153,24.948174 100.37441,24.948174 100.37441,29.397946 99.421753,29.397946 99.421753,23.758223 100.96858,23.758223 102.76176,28.207413 102.89733,28.207413 102.89733,23.758223 103.85928,23.758223 "
             style="fill:#009edd;fill-opacity:1" />
          <path
             d="m 64.337092,34.40733 c 0,0 -1.012693,-0.131765 -1.482726,-0.131765 -0.539367,0 -0.864924,0.196872 -0.864924,0.620263 0,0.488305 0.220201,0.594298 1.108171,0.921191 1.009594,0.373591 1.431986,0.659405 1.431986,1.636982 0,1.172706 -0.650533,1.711004 -1.788917,1.711004 -0.621482,0 -1.720164,-0.212761 -1.720164,-0.212761 l 0.09742,-0.863253 c 0,0 1.033802,0.138159 1.614614,0.138159 0.536075,0 0.837423,-0.202879 0.837423,-0.748927 0,-0.440249 -0.195799,-0.562519 -0.944715,-0.822173 -1.221468,-0.449163 -1.596604,-0.733813 -1.596604,-1.743945 0,-1.067875 0.741945,-1.572844 1.825714,-1.572844 0.626324,0 1.553609,0.202879 1.553609,0.202879 l -0.07088,0.86519 z"
             id="Fill-34"
             mask="url(#mask-2)"
             inkscape:connector-curvature="0"
             style="fill:#009edd;fill-opacity:1" />
          <path
             d="m 68.854081,36.297359 c 0,-1.311446 -0.252544,-2.030145 -1.287508,-2.030145 -1.032835,0 -1.285184,0.718699 -1.285184,2.030145 0,1.311447 0.244409,1.946049 1.285184,1.946049 1.042905,0 1.287508,-0.618326 1.287508,-1.946049 m -3.558078,0 c 0,-1.890048 0.529102,-2.949785 2.27057,-2.949785 1.743404,0 2.2727,1.059737 2.2727,2.949785 0,1.90555 -0.529296,2.867626 -2.2727,2.867626 -1.741468,0 -2.27057,-0.977965 -2.27057,-2.867626"
             id="Fill-35"
             mask="url(#mask-2)"
             inkscape:connector-curvature="0"
             style="fill:#009edd;fill-opacity:1" />
          <path
             d="m 72.787779,38.212753 c 0.666801,0 1.115144,-0.230395 1.115144,-0.955682 l 0,-3.819432 0.96079,0 0,3.819432 c 0,1.353495 -0.724708,1.891599 -2.075934,1.891599 -1.335925,0 -2.052886,-0.538104 -2.052886,-1.891599 l 0,-3.819432 0.960983,0 0,3.819432 c 0,0.734588 0.440015,0.955682 1.091903,0.955682"
             id="Fill-36"
             mask="url(#mask-2)"
             inkscape:connector-curvature="0"
             style="fill:#009edd;fill-opacity:1" />
          <path
             d="m 78.152824,34.349431 -1.172857,0 0,1.890049 1.191255,0 c 0.657505,0 0.902108,-0.391419 0.902108,-0.970021 0,-0.618713 -0.299218,-0.920028 -0.920506,-0.920028 l 0,0 z m -0.02421,2.803294 -1.148648,0 0,1.921827 -0.951687,0 0,-5.636816 2.124544,0 c 1.287315,0 1.905698,0.528609 1.905698,1.815446 0,0.847363 -0.307158,1.337024 -0.88797,1.622062 l 0.88797,2.199308 -1.050264,0 -0.773512,-1.921827 -0.106131,0 z"
             id="Fill-37"
             mask="url(#mask-2)"
             inkscape:connector-curvature="0"
             style="fill:#009edd;fill-opacity:1" />
          <path
             d="m 84.471821,38.962107 c 0,0 -0.951881,0.202878 -1.595441,0.202878 -1.701959,0 -2.09317,-0.977965 -2.09317,-2.90173 0,-2.052041 0.49676,-2.915681 2.09317,-2.915681 0.707277,0 1.603575,0.220706 1.603575,0.220706 l -0.03254,0.839031 c 0,0 -0.951881,-0.12227 -1.441475,-0.12227 -0.985192,0 -1.237735,0.472415 -1.237735,1.978214 0,1.435461 0.195798,1.963876 1.27124,1.963876 0.438853,0 1.40797,-0.130215 1.40797,-0.130215 l 0.0244,0.865191 z"
             id="Fill-38"
             mask="url(#mask-2)"
             inkscape:connector-curvature="0"
             style="fill:#009edd;fill-opacity:1" />
          <polygon
             id="Fill-39"
             mask="url(#mask-2)"
             points="88.438308,36.721176 86.352885,36.721176 86.352885,38.162837 88.926546,38.162837 88.926546,39.074533 85.409332,39.074533 85.409332,33.437716 88.926546,33.437716 88.926546,34.349412 86.352885,34.349412 86.352885,35.824983 88.438308,35.824983 "
             style="fill:#009edd;fill-opacity:1" />
          <path
             d="m 18.497417,44.195452 c 1.736432,0.804152 3.611918,1.358726 5.587143,1.609661 0.804693,0.10483 1.614034,0.162574 2.441579,0.162574 -0.826771,0 -1.636886,-0.05774 -2.445259,-0.164124 -1.971545,-0.25326 -3.845676,-0.803959 -5.583463,-1.608111"
             id="Fill-40"
             mask="url(#mask-2)"
             inkscape:connector-curvature="0"
             style="fill:#009edd;fill-opacity:1" />
          <path
             d="m 21.088682,47.085749 0.07205,-0.180013 C 19.49479,46.239161 17.886567,45.39141 16.396481,44.398331 l -0.107292,0.161218 0.112521,-0.15773 -0.01065,-0.0076 -0.01278,-0.0085 -0.02886,-0.01725 -0.09974,0.166062 0,0.193772 0.0015,0 c 0.08793,0 0.164231,-0.05871 0.187084,-0.143391 0.02285,-0.08487 -0.01375,-0.173813 -0.08967,-0.217799 -0.748529,-0.435212 -1.466458,-0.911696 -2.149333,-1.434879 l -1.94e-4,-1.94e-4 C 12.115245,41.342165 10.3486,39.358525 9.0084142,37.091009 l 1.936e-4,3.88e-4 C 8.337159,35.950857 7.8123173,34.720988 7.3674607,33.445002 6.6338443,31.34723 6.1947978,29.11595 6.1947978,26.773832 c 0,-0.937854 0.068946,-1.859238 0.1930875,-2.763958 l 1.937e-4,-5.81e-4 c 0.024789,-0.188346 0.081534,-0.38328 0.1191061,-0.605149 0.1148454,-0.686533 0.2409236,-1.365509 0.4198734,-2.018713 0.077855,-0.285813 0.1928938,-0.569495 0.2936015,-0.875266 l 1.936e-4,-9.69e-4 C 7.3972857,19.961597 7.5719747,19.420005 7.7898518,18.902054 7.9248387,18.580587 8.093524,18.27094 8.2540752,17.941722 l 0,-5.82e-4 c 0.1522235,-0.315072 0.2825624,-0.628982 0.4400149,-0.91557 0.048417,-0.08797 0.021497,-0.198423 -0.061974,-0.254423 -0.083665,-0.05581 -0.1957989,-0.03856 -0.2587411,0.03992 -0.3559628,0.444125 -0.7413632,0.879723 -1.0787338,1.364734 l -1.936e-4,1.94e-4 c -0.044544,0.06453 -0.078242,0.122851 -0.1101974,0.168193 l -0.00155,0.0021 c -0.5277467,0.773149 -1.0080447,1.575945 -1.4457355,2.398311 l -1.937e-4,3.88e-4 c -0.051128,0.09708 -0.1127151,0.198422 -0.1702346,0.31081 -0.4297505,0.836899 -0.8037244,1.700927 -1.1366406,2.580456 l 0,-3.87e-4 c -0.05752,0.151335 -0.1148455,0.304609 -0.171203,0.460789 l -1.937e-4,9.69e-4 c -0.3135493,0.883404 -0.5831359,1.785024 -0.7955903,2.703501 l 0,-3.87e-4 c -0.031374,0.134477 -0.054421,0.265079 -0.080179,0.391031 l 0.1897952,0.03875 -0.1894078,-0.04069 c -0.207419,0.963045 -0.372231,1.941204 -0.4624805,2.935059 l 0,5.81e-4 -0.00387,0.04496 0,3.88e-4 c -0.060812,0.70591 -0.094317,1.412014 -0.094317,2.133038 0,2.091183 0.2662942,4.219958 0.834905,6.339239 0.7475605,2.774422 1.9436574,5.311668 3.4902942,7.553993 0.8844842,1.281218 1.8843948,2.470007 2.9974081,3.567142 l 0.135761,-0.137966 -0.140797,0.132928 c 1.493185,1.585245 3.239107,2.898242 5.154295,3.892678 l 1.93e-4,0 c 2.688119,1.392249 5.706831,2.154353 8.822957,2.154353 1.644827,0 3.318511,-0.211405 4.985803,-0.657274 4.590912,-1.230256 8.338205,-4.02018 10.838078,-7.647391 0.04784,-0.06937 0.04512,-0.161993 -0.0064,-0.22865 -0.05152,-0.06666 -0.140603,-0.09243 -0.21962,-0.06336 -0.305803,0.112193 -0.629035,0.197647 -0.955754,0.302089 -0.286049,0.09127 -0.563963,0.187184 -0.840909,0.265661 l -1.93e-4,0 c -0.533751,0.152692 -1.076798,0.277869 -1.622362,0.393163 l -0.0015,3.88e-4 c -0.231821,0.05096 -0.455509,0.108705 -0.676097,0.152304 l 0.03757,0.19009 -0.03544,-0.190478 c -0.633877,0.118008 -1.274726,0.202686 -1.917705,0.273412 -0.157647,0.01783 -0.30038,0.04592 -0.431107,0.05542 l -0.0043,3.88e-4 c -0.799851,0.07731 -1.602026,0.11975 -2.403814,0.11975 -3.286749,0 -6.588022,-0.625107 -9.703374,-1.86602 l 3.87e-4,0 -0.07205,0.180013 -0.07166,0.180014 c 3.161251,1.259322 6.510942,1.893537 9.846689,1.893537 0.815538,0 1.630108,-0.04302 2.441192,-0.121689 l -0.01879,-0.192803 0.01453,0.193191 c 0.162101,-0.0124 0.309095,-0.04185 0.444857,-0.05658 0.648208,-0.0715 1.298741,-0.157148 1.945787,-0.277481 l 0.0023,-3.87e-4 c 0.235114,-0.0467 0.461512,-0.105412 0.684038,-0.154242 l -0.0016,3.87e-4 c 0.550213,-0.116457 1.101974,-0.243377 1.648701,-0.399557 l -1.94e-4,0 c 0.290503,-0.08274 0.572097,-0.17982 0.852916,-0.269149 0.313937,-0.100955 0.642398,-0.187183 0.97086,-0.307322 l -0.06662,-0.182145 -0.159389,-0.109868 c -2.450488,3.554934 -6.119538,6.28692 -10.619233,7.493148 -1.633981,0.436762 -3.273966,0.643903 -4.885676,0.643903 -3.05299,0 -6.010502,-0.746602 -8.645169,-2.110948 l 1.94e-4,0 c -1.876455,-0.974283 -3.587516,-2.261315 -5.050682,-3.8142 l -0.005,-0.0052 C 9.3208015,48.407853 8.3369654,47.238054 7.4664253,45.976794 5.9441907,43.770123 4.767267,41.273763 4.0313266,38.542358 3.4718183,36.456794 3.2097847,34.362123 3.2097847,32.303881 c 0,-0.708817 0.032924,-1.403682 0.092767,-2.099709 l 0,3.87e-4 0.00407,-0.04515 0,5.82e-4 c 0.088313,-0.97409 0.2502197,-1.936748 0.455121,-2.888554 l 3.874e-4,-0.0019 c 0.027114,-0.132927 0.049773,-0.259847 0.077855,-0.380373 l 1.937e-4,-3.88e-4 c 0.2089683,-0.902782 0.4741005,-1.79045 0.7831955,-2.661453 l -1.937e-4,9.69e-4 c 0.055196,-0.153468 0.1117468,-0.304416 0.168879,-0.454395 l 0,-3.87e-4 c 0.3286555,-0.868291 0.6972067,-1.718755 1.1190168,-2.540734 0.048998,-0.09592 0.1096164,-0.195903 0.1681042,-0.306353 l -1.936e-4,3.88e-4 C 6.5104805,20.115876 6.983419,19.325288 7.5024507,18.564928 L 7.3424805,18.455641 7.5009013,18.56706 c 0.045125,-0.06433 0.07921,-0.123433 0.1117468,-0.170132 l 0,1.94e-4 c 0.3199374,-0.460438 0.6989467,-0.89003 1.0628499,-1.343456 l -0.1510615,-0.121301 -0.1696536,-0.0934 c -0.1708157,0.311585 -0.3032849,0.63189 -0.449311,0.933592 l 1.936e-4,-3.87e-4 C 7.7509244,18.090732 7.5781721,18.406386 7.432727,18.751687 7.2063285,19.290372 7.0287344,19.842621 6.8523024,20.39022 l 1.937e-4,-9.69e-4 c -0.09451,0.289108 -0.2124544,0.578602 -0.2990242,0.893869 -0.1847598,0.674325 -0.3127747,1.36609 -0.4283948,2.057079 -0.031568,0.192222 -0.089862,0.391031 -0.1210428,0.617357 l 1.936e-4,-5.82e-4 c -0.1266592,0.920997 -0.1967672,1.860014 -0.1967672,2.816858 0,2.390755 0.4485363,4.666215 1.1943538,6.799059 0.450473,1.29207 0.9848045,2.545578 1.6729088,3.715184 l 1.937e-4,3.87e-4 c 1.36575,2.310339 3.165899,4.331571 5.289281,5.951696 l -3.87e-4,-1.94e-4 c 0.696819,0.533647 1.428305,1.019239 2.190197,1.462007 l 0.09722,-0.167419 0,-0.193771 -0.0015,0 c -0.08734,0 -0.163456,0.05794 -0.186696,0.14184 -0.02324,0.0841 0.0122,0.173038 0.08696,0.217993 l 0.02227,0.01356 0.0045,0.0029 0.0052,0.0037 c 1.512358,1.008194 3.143628,1.868152 4.834742,2.544996 l 3.87e-4,0 0.07166,-0.180014 z"
             id="Fill-41"
             mask="url(#mask-2)"
             inkscape:connector-curvature="0"
             style="fill:#009edd;fill-opacity:1" />
          <path
             d="m 45.098486,15.038868 -0.178949,0.07383 c 1.286927,3.120498 1.981229,6.514021 1.981229,10.00346 0,0.204235 -0.01278,0.397619 -0.0182,0.6129 l 0,7.75e-4 c -0.007,0.342007 -0.0081,0.678782 -0.02692,1.011488 l -3.87e-4,0.01085 0,0.01899 c 0,3.631474 -0.957885,7.046893 -2.630406,9.997647 -0.114265,0.202686 -0.263002,0.398783 -0.401088,0.622008 -3.145951,5.116733 -8.474354,8.748595 -14.712804,9.544221 -0.158615,0.02093 -0.347829,0.01608 -0.547308,0.0372 l 0.0012,-1.94e-4 c -0.565705,0.05794 -1.130249,0.11045 -1.703702,0.121689 -0.09993,0.0019 -0.182242,0.08042 -0.189407,0.180014 -0.007,0.09979 0.06372,0.188927 0.162294,0.20501 0.338145,0.05464 0.677452,0.10483 1.01889,0.145716 l 5.81e-4,0 c 0.255255,0.02965 0.518451,0.07518 0.793847,0.0994 0.626712,0.05503 1.252648,0.08138 1.880328,0.08894 l -9.68e-4,0 c 0.09838,0.0014 0.210517,0.01395 0.336983,0.01434 2.452037,0 4.894972,-0.369523 7.250562,-1.084347 l 3.88e-4,-1.93e-4 c 0.68791,-0.210436 1.371947,-0.444319 2.04572,-0.715793 0.275203,-0.110837 0.547501,-0.230976 0.819218,-0.350145 l 0.0048,-0.0021 c 0.07243,-0.0341 0.149318,-0.06549 0.230853,-0.100567 l 0.0048,-0.0021 c 2.55139,-1.178712 4.944745,-2.816276 7.043338,-4.921993 l -3.88e-4,3.88e-4 c 3.198823,-3.194907 5.32143,-7.056388 6.390674,-11.177716 l -0.187471,-0.04883 0.185535,0.05561 c 0.540916,-1.806533 0.80721,-3.675267 0.80721,-5.5409 0,-0.289495 -0.0095,-0.578408 -0.01956,-0.867128 l 0,-0.0019 C 55.229829,18.442172 53.364608,13.882144 49.832287,10.348331 L 49.8319,10.347944 C 48.702077,9.2232 47.471313,8.266937 46.166956,7.477899 43.569473,5.9102865 40.682844,5.0102173 37.752833,4.7827294 c -0.08328,-0.00639 -0.161326,0.041467 -0.193669,0.1185882 -0.03215,0.077315 -0.01123,0.1662561 0.0519,0.2210935 l 0.04474,0.042048 0.01259,0.011626 c 0.593401,0.4976056 1.165304,1.0184637 1.706801,1.5648997 2.374376,2.3977301 4.255091,5.2475292 5.544343,8.3717092 l 0.178949,-0.07383 0.17895,-0.07383 C 43.969399,11.79455 42.060602,8.902508 39.650397,6.468155 39.09941,5.9122242 38.518598,5.3834214 37.917257,4.8788401 L 37.792729,5.027463 37.929652,4.8904664 c -0.02014,-0.020346 -0.04183,-0.040886 -0.06488,-0.061038 L 37.73792,4.9759197 37.723008,5.16911 c 2.870942,0.2230312 5.699084,1.1048859 8.243501,2.640526 1.278212,0.7731488 2.484186,1.7100346 3.592357,2.812983 l -3.87e-4,-3.88e-4 c 3.461825,3.463862 5.288119,7.929329 5.493795,12.464747 l 0,-0.0019 c 0.01027,0.287944 0.01937,0.572207 0.01937,0.85337 0,1.828817 -0.261065,3.659959 -0.790942,5.429675 l -0.0019,0.007 c -1.052782,4.057771 -3.140529,7.855695 -6.289386,11.000802 l -1.93e-4,3.88e-4 c -2.065475,2.072387 -4.420291,3.683599 -6.93159,4.843709 l 0.08134,0.175945 -0.0765,-0.178076 c -0.07689,0.03314 -0.158227,0.06608 -0.243054,0.106187 l 0.0825,0.175169 -0.07766,-0.177495 c -0.272298,0.119364 -0.54111,0.237758 -0.808566,0.345495 -0.660991,0.26663 -1.334376,0.496831 -2.014347,0.704941 l 3.88e-4,-1.93e-4 c -2.319762,0.703778 -4.724931,1.067681 -7.138041,1.067681 -0.0978,3.88e-4 -0.207226,-0.01201 -0.330399,-0.01434 l -7.74e-4,0 c -0.620127,-0.0076 -1.23638,-0.03352 -1.851472,-0.08739 -0.254093,-0.02209 -0.513415,-0.06666 -0.782614,-0.09824 l 5.81e-4,0 c -0.334466,-0.04011 -0.668544,-0.08913 -1.003203,-0.143585 l -0.03079,0.191446 0.0037,0.193772 c 0.592238,-0.01163 1.167821,-0.06569 1.735463,-0.123626 l 0.0012,-1.94e-4 c 0.164425,-0.01841 0.355382,-0.01318 0.554473,-0.03778 6.359106,-0.811322 11.789185,-4.513135 14.993818,-9.725592 0.124141,-0.202104 0.276365,-0.401689 0.408253,-0.634408 1.704477,-3.006755 2.68076,-6.488443 2.68076,-10.188513 l 0,-0.01899 -0.193669,0 0.193475,0.01085 c 0.01937,-0.34627 0.02053,-0.687502 0.0275,-1.025246 l -1.94e-4,7.76e-4 c 0.005,-0.204817 0.01821,-0.401883 0.0184,-0.622395 0,-3.540983 -0.704566,-6.984692 -2.010667,-10.151114 l -0.17895,0.07383 z"
             id="Fill-42"
             mask="url(#mask-2)"
             inkscape:connector-curvature="0"
             style="fill:#009edd;fill-opacity:1" />
          <path
             d="m 23.914093,6.414519 0.02614,0.1920277 c 0.07166,-0.010464 0.170041,-0.00756 0.283531,-0.018602 l 0.0021,-1.937e-4 C 24.93043,6.50753 25.63519,6.446879 26.349246,6.4422285 l -0.0014,0 c 0.04687,-1.938e-4 0.09935,-0.0031 0.178176,-0.0031 0.775448,0 1.536759,0.061619 2.290517,0.1486229 l 0.0031,3.875e-4 c 0.115814,0.010851 0.217683,0.00794 0.293408,0.018408 l 0.02537,-0.1920277 -0.03815,0.1898962 0.03041,0.0062 0.01356,0.00213 c 0.705148,0.089329 1.397125,0.2257439 2.080775,0.3887059 l 5.81e-4,1.938e-4 c 0.219039,0.051349 0.437497,0.1176193 0.664283,0.1796263 0.473132,0.1288581 0.93755,0.2697301 1.394026,0.4323045 l 9.69e-4,3.875e-4 c 0.235888,0.082741 0.470227,0.170519 0.703597,0.2617855 l -3.87e-4,-1.938e-4 c 0.458994,0.1807889 0.908112,0.3807612 1.352387,0.5948789 l -0.0017,-7.751e-4 c 0.196961,0.096886 0.392566,0.1802076 0.571129,0.2736055 0.612186,0.3195295 1.208685,0.6636679 1.78175,1.0390035 L 37.797803,9.620083 37.688574,9.7801384 c 0.08618,0.058713 0.174689,0.1302145 0.27559,0.2005536 l 0.0012,7.751e-4 c 0.48146,0.3292179 0.948007,0.6741319 1.396931,1.0419099 l 7.75e-4,7.75e-4 c 0.169847,0.137772 0.334465,0.28562 0.506055,0.435211 l 3.88e-4,3.88e-4 c 0.367002,0.318754 0.721996,0.65146 1.06537,0.997924 l 9.69e-4,9.69e-4 c 0.159195,0.158117 0.314518,0.314103 0.464998,0.476097 0.37378,0.400913 0.730324,0.820041 1.070406,1.250214 l -1.94e-4,-3.87e-4 c 0.09528,0.120913 0.190764,0.228069 0.27346,0.336387 l -3.87e-4,-7.75e-4 c 0.417356,0.550893 0.80721,1.120775 1.167627,1.71391 0.0519,0.08545 0.160164,0.117232 0.250026,0.07363 0.08986,-0.0436 0.131889,-0.148429 0.09683,-0.242214 -0.02537,-0.06743 -0.04939,-0.143198 -0.08018,-0.222063 -0.181661,-0.463114 -0.389274,-0.912083 -0.595724,-1.356013 l 3.87e-4,5.81e-4 c -0.14509,-0.314488 -0.285693,-0.641381 -0.451086,-0.959748 l 1.94e-4,5.81e-4 C 42.9,13.0791 42.643002,12.64854 42.387166,12.221467 l 9.68e-4,0.0015 C 42.217706,11.932941 42.053668,11.628913 41.861937,11.335543 41.572596,10.892 41.256335,10.475585 40.947821,10.060332 40.761125,9.8103668 40.58508,9.5408305 40.375337,9.2821453 l 5.81e-4,7.751e-4 C 39.970763,8.7789204 39.533073,8.3070865 39.094413,7.8426159 38.969691,7.7114325 38.851166,7.5556401 38.702622,7.4062422 l 3.87e-4,1.938e-4 C 38.063516,6.7625329 37.378704,6.1653287 36.673363,5.5968028 36.274019,5.2747543 35.873125,4.9480554 35.443955,4.6463529 l 5.81e-4,3.876e-4 C 33.151501,3.0211903 30.540849,1.7688443 27.669713,1.004609 l 5.81e-4,0 C 25.55679,0.43627682 23.431277,0.16189619 21.334622,0.16189619 c -2.221572,0 -4.415255,0.30751557 -6.533408,0.89386851 l 0.05171,0.1867959 -0.04493,-0.1885398 C 12.691389,1.5582145 10.677818,2.4133287 8.8602384,3.5794464 L 8.860432,3.5792526 C 7.2460112,4.6120554 5.7820708,5.8913356 4.5288417,7.380083 l 1.937e-4,-1.937e-4 C 2.7620037,9.4735917 1.4129087,11.976152 0.6618622,14.794367 l 1.9367e-4,-5.81e-4 C 0.2113892,16.460609 9.6834264e-5,18.132083 9.6834264e-5,19.775654 c 0,2.904443 0.663508375736,5.727114 1.882845465736,8.276568 0.036216,0.07596 0.1173631,0.11975 0.2006406,0.108318 0.083471,-0.01124 0.1498994,-0.07518 0.1646182,-0.158118 0.037378,-0.212761 0.1105847,-0.434048 0.1609386,-0.680913 0.092186,-0.458852 0.2041266,-0.911115 0.3218771,-1.368609 l -1.937e-4,3.87e-4 c 0.1516425,-0.58209 0.3180037,-1.15701 0.5077989,-1.72573 l -1.937e-4,3.88e-4 C 3.3889088,23.78072 3.54946,23.339695 3.723568,22.90274 3.9462868,22.344097 4.1889534,21.797273 4.4498249,21.255488 4.6516276,20.835391 4.8536238,20.422657 5.0753743,20.019225 l 1.937e-4,-3.88e-4 c 0.2959255,-0.541979 0.6220633,-1.066519 0.9584655,-1.591446 l -3.873e-4,5.81e-4 C 6.2757318,18.053024 6.5108454,17.682727 6.7661006,17.326381 7.1480149,16.793509 7.5649832,16.284858 7.991635,15.776208 l -5.81e-4,3.87e-4 c 0.2674562,-0.316429 0.5151583,-0.634214 0.7864879,-0.927585 0.4894004,-0.529771 1.0192775,-1.026214 1.5586441,-1.521107 0.264939,-0.243765 0.505088,-0.493342 0.763829,-0.712498 l -1.94e-4,1.94e-4 c 0.642399,-0.542948 1.32876,-1.042298 2.032939,-1.528083 l 0.0014,-7.76e-4 c 0.210711,-0.148235 0.393921,-0.304996 0.586234,-0.42901 l 5.81e-4,-3.87e-4 c 0.921281,-0.599917 1.88149,-1.151779 2.88663,-1.6375644 l 0.01007,-0.00523 c 2.218667,-1.2385882 4.692976,-2.0760692 7.320671,-2.4078062 l 0.0019,-1.938e-4 -0.02614,-0.1920277 -0.02421,-0.1922214 C 21.211654,6.560431 18.689703,7.413995 16.42901,8.6762234 L 16.52333,8.845386 16.43908,8.6709915 c -1.021602,0.4935364 -1.995948,1.0537301 -2.92943,1.6617855 l 5.81e-4,-3.88e-4 c -0.22117,0.143198 -0.407866,0.303641 -0.59863,0.436956 l 0.0014,-7.75e-4 c -0.709408,0.489273 -1.406227,0.995792 -2.063151,1.551141 l -1.93e-4,0 c -0.278689,0.236596 -0.522131,0.490243 -0.775256,0.722769 -0.5411095,0.496636 -1.078927,1.000055 -1.5813032,1.543584 -0.285661,0.30926 -0.5366555,0.63189 -0.7977206,0.940374 l -5.811e-4,5.81e-4 C 7.26654,16.037993 6.842987,16.554007 6.4511955,17.100443 6.1876127,17.468609 5.9492067,17.844526 5.7082831,18.217536 l -3.874e-4,7.75e-4 c -0.3381452,0.527834 -0.6693184,1.059931 -0.972216,1.614699 l 3.873e-4,-3.87e-4 c -0.2277542,0.41409 -0.4328491,0.833218 -0.6354264,1.254865 -0.2639702,0.548761 -0.5105102,1.103917 -0.7369088,1.671668 -0.1768193,0.444124 -0.3398882,0.891931 -0.492499,1.345162 l -1.937e-4,5.82e-4 c -0.1928938,0.578602 -0.3617728,1.161854 -0.5149646,1.750726 l -1.937e-4,5.82e-4 c -0.1183314,0.45982 -0.2322086,0.918865 -0.3265251,1.388761 -0.043188,0.216249 -0.1177505,0.440055 -0.1624879,0.689827 l 0.1907635,0.03372 0.1744953,-0.08352 C 1.0373855,25.386505 0.38743389,22.620803 0.38743389,19.775654 c 0,-1.610242 0.20683799,-3.247419 0.64859591,-4.88072 l 1.937e-4,-5.81e-4 C 1.7723575,12.132526 3.0933706,9.6817024 4.8249609,7.6298547 l 1.937e-4,-1.938e-4 C 6.0532067,6.1709481 7.4873222,4.9176332 9.069013,3.9059516 l 1.937e-4,-1.938e-4 C 10.849989,2.7632803 12.823278,1.925218 14.897661,1.4309066 l 0.0068,-0.00174 c 2.085616,-0.57705187 4.244439,-0.87972315 6.430182,-0.87972315 2.062957,0 4.15419,0.26992387 6.234965,0.82953635 l 3.87e-4,0 c 2.826011,0.7524152 5.394056,1.9844152 7.650681,3.584 l 5.82e-4,5.813e-4 c 0.414257,0.291045 0.808953,0.6121246 1.209072,0.9349481 0.697594,0.5623252 1.371367,1.1504221 1.997885,1.7811488 l 3.87e-4,3.875e-4 c 0.124722,0.1244014 0.241505,0.277481 0.384626,0.4290104 0.436722,0.4623391 0.867247,0.9268097 1.260782,1.4168581 l 5.81e-4,5.814e-4 c 0.193475,0.2379515 0.367002,0.5026436 0.562607,0.7653976 0.310063,0.417191 0.621095,0.827211 0.900559,1.25564 0.180111,0.275156 0.341437,0.573758 0.51632,0.871779 l 7.75e-4,0.0016 c 0.255642,0.426685 0.508186,0.850076 0.733229,1.285869 l 3.87e-4,3.87e-4 c 0.156678,0.301509 0.294957,0.622782 0.442726,0.943281 l 3.87e-4,5.81e-4 c 0.206258,0.443156 0.41019,0.885149 0.586235,1.334117 0.02479,0.06259 0.04842,0.136803 0.07805,0.216056 l 0.181273,-0.06782 0.165587,-0.100568 c -0.367583,-0.605148 -0.764991,-1.185882 -1.190093,-1.746657 l -5.81e-4,-9.69e-4 c -0.0947,-0.123433 -0.191538,-0.231751 -0.276752,-0.340263 l -1.94e-4,-3.88e-4 C 42.429214,13.507196 42.065892,13.080123 41.684365,12.670877 41.52788,12.50249 41.368879,12.342822 41.208715,12.183736 l 0.0012,9.69e-4 c -0.349959,-0.353052 -0.711926,-0.692347 -1.086674,-1.017689 l 3.87e-4,1.94e-4 c -0.168685,-0.146879 -0.33679,-0.298021 -0.516708,-0.444125 l 7.75e-4,5.82e-4 C 39.148834,10.347502 38.673184,9.996 38.183978,9.6613564 l 9.68e-4,7.751e-4 c -0.08541,-0.0591 -0.174883,-0.1313772 -0.278108,-0.2021038 l -0.0031,-0.00213 C 37.318473,9.0748097 36.710741,8.724083 36.089065,8.3995156 35.892104,8.2968166 35.693788,8.2127197 35.51019,8.1220346 l -0.0015,-7.751e-4 C 35.057393,7.9038477 34.599561,7.6998062 34.129914,7.5149481 l -3.87e-4,-1.938e-4 C 33.89267,7.4221315 33.653877,7.3328028 33.413147,7.2481246 l 7.75e-4,3.875e-4 C 32.945825,7.0818685 32.471918,6.93809 31.991814,6.8072941 31.772,6.7474187 31.549281,6.6797924 31.314361,6.6243737 l 5.81e-4,1.938e-4 c -0.69372,-0.165481 -1.399449,-0.304609 -2.122026,-0.396263 l -0.02421,0.1922214 0.03796,-0.1898961 -0.03021,-0.00601 -0.01278,-0.00213 c -0.11911,-0.015113 -0.224466,-0.011237 -0.305613,-0.020151 l -0.01917,0.1928028 0.02208,-0.1924153 c -0.762666,-0.087972 -1.53889,-0.1511418 -2.334867,-0.1511418 -0.08696,0 -0.150287,0.0031 -0.178176,0.0031 l -0.0012,0 c -0.734392,0.00484 -1.452902,0.067045 -2.164634,0.1480415 l 0.02188,0.1924153 -0.01975,-0.192609 c -0.07785,0.00853 -0.179725,0.00484 -0.296313,0.019959 l 0.02614,0.1920276 -0.02421,-0.1922214 0.02421,0.1922214 z"
             id="Fill-43"
             mask="url(#mask-2)"
             inkscape:connector-curvature="0"
             style="fill:#009edd;fill-opacity:1" />
          <path
             d="m 45.714856,26.713996 0.193668,-5.82e-4 C 45.893418,21.326176 43.671265,16.465608 40.111638,12.962605 37.165165,10.064363 33.305545,8.0913799 28.993515,7.5430062 28.182819,7.4391446 27.361664,7.3837259 26.526178,7.3837259 c -0.03176,0 -0.08173,0 -0.166555,0.00368 l 0.0081,0.1935779 -0.0017,-0.1937717 c -0.785713,0.00639 -1.551091,0.060844 -2.308141,0.1557924 l -1.94e-4,0 c -2.498711,0.3173979 -4.84578,1.1070173 -6.991047,2.304526 l -1.93e-4,1.937e-4 C 11.141925,13.165677 7.1391836,19.496196 7.1391836,26.773871 c 0,1.54126 0.2151657,3.026519 0.5525363,4.459073 l 0,3.87e-4 C 8.145098,33.143532 8.84734,34.95956 9.8201371,36.6103 c 0.5052809,0.854921 1.0907409,1.650741 1.7133859,2.411488 1.481757,1.806921 3.271255,3.359419 5.330726,4.552665 l 5.81e-4,3.87e-4 c 0.503925,0.289882 1.023151,0.553024 1.551478,0.796595 l -1.93e-4,-1.94e-4 c 1.755218,0.812291 3.648908,1.368803 5.640208,1.624582 l -5.81e-4,-1.94e-4 c 0.815732,0.107543 1.634563,0.165869 2.470436,0.165869 0.835873,0 1.654317,-0.05833 2.470048,-0.165869 l -9.68e-4,1.94e-4 c 3.093274,-0.392388 5.961311,-1.515488 8.42032,-3.189481 2.460172,-1.673024 4.515963,-3.900235 5.986876,-6.500844 1.594473,-2.819378 2.509363,-6.064277 2.509363,-9.511668 l 0,-0.03895 -5.81e-4,-0.01531 -0.0033,-0.04089 -0.193087,0.01531 0.193668,-5.82e-4 -0.193668,5.82e-4 -0.193088,0.01531 0.0027,0.03314 0,0.03139 c -1.94e-4,3.378602 -0.896105,6.556844 -2.459203,9.320609 -1.441282,2.548678 -3.456403,4.732097 -5.867382,6.371405 -2.410205,1.64047 -5.220142,2.741093 -8.251248,3.125342 l -7.74e-4,1.94e-4 c -0.800626,0.105218 -1.601833,0.162574 -2.419695,0.162574 -0.817862,0 -1.619263,-0.05736 -2.420082,-0.162574 l -5.81e-4,-1.94e-4 c -1.951579,-0.250547 -3.806536,-0.795432 -5.5267,-1.591446 l -3.87e-4,-1.94e-4 c -0.519613,-0.239502 -1.02838,-0.497799 -1.520492,-0.7809 l 3.88e-4,3.88e-4 C 15.04086,42.07001 13.286997,40.548515 11.832934,38.775892 11.218811,38.025802 10.645552,37.245871 10.153634,36.413428 9.2027218,34.799698 8.5138428,33.020293 8.0687926,31.143809 l 0,1.94e-4 C 7.736651,29.733733 7.5265207,28.279089 7.5265207,26.773871 c 0,-7.132733 3.9221753,-13.335169 9.7291323,-16.588014 l -1.94e-4,1.94e-4 c 2.103628,-1.1740621 4.401892,-1.9474046 6.851024,-2.2584081 l -3.87e-4,0 c 0.7433,-0.093398 1.493184,-0.1466851 2.26321,-0.1528858 l 0.0064,-1.938e-4 c 0.0794,-0.00329 0.119687,-0.00329 0.15048,-0.00329 0.81825,0 1.622749,0.054256 2.418339,0.1561799 4.225073,0.5373288 8.006644,2.4700068 10.895598,5.3114738 3.489713,3.43499 5.665966,8.195571 5.681072,13.475654 l 5.81e-4,0.01473 0.193088,-0.01531 z"
             id="Fill-44"
             mask="url(#mask-2)"
             inkscape:connector-curvature="0"
             style="fill:#009edd;fill-opacity:1" />
          <path
             d="m 35.06667,24.378137 -4.824477,-0.0039 c -0.04086,0.585965 0.108454,1.125231 0.409609,1.503667 0.03389,0.01143 0.06372,0.02015 0.09567,0.02732 -0.725289,-0.202104 -1.513713,-0.368553 -2.340097,-0.530547 -0.838584,-0.166643 -1.626234,-0.254034 -2.237646,-0.402076 -0.713862,-0.177107 -1.191255,-0.429785 -1.228246,-0.981259 -0.06197,-1.549786 2.453006,-1.974146 3.670406,-0.649135 0.09412,0.103086 0.182823,0.214699 0.261453,0.336969 l 0.472938,0 4.561282,0.0041 0,-0.01899 c -0.03719,-0.157342 -0.0796,-0.304221 -0.127434,-0.450712 -0.01452,-0.04651 -0.02963,-0.0901 -0.04551,-0.140291 -0.03137,-0.09514 -0.06701,-0.189315 -0.103612,-0.280581 -0.02305,-0.04806 -0.04377,-0.09805 -0.06139,-0.147848 -0.0397,-0.08681 -0.07979,-0.169938 -0.120849,-0.254422 -0.02285,-0.03972 -0.04086,-0.08255 -0.06527,-0.124014 -0.05307,-0.104249 -0.110584,-0.198422 -0.169266,-0.29337 -0.01278,-0.01783 -0.0213,-0.03565 -0.03292,-0.05309 -0.07243,-0.112 -0.148156,-0.218962 -0.22543,-0.318948 -0.0184,-0.02422 -0.04009,-0.05154 -0.06101,-0.07499 -0.05965,-0.07421 -0.120462,-0.14901 -0.183211,-0.21838 -0.0246,-0.03139 -0.05442,-0.05794 -0.08037,-0.08855 -0.06178,-0.06356 -0.122011,-0.122851 -0.182049,-0.185439 -0.03137,-0.02577 -0.05849,-0.05213 -0.08483,-0.07635 -0.07263,-0.0622 -0.14409,-0.125371 -0.213617,-0.184277 -0.01762,-0.01221 -0.0337,-0.02577 -0.04764,-0.03875 l 0,-0.0014 0.01084,0.0045 c 0.413483,0.18699 0.816507,0.427266 1.196097,0.734976 0.0703,0.05445 0.140797,0.115875 0.210324,0.180207 0.02982,0.0248 0.05713,0.05135 0.08463,0.07867 0.06256,0.05832 0.122011,0.118782 0.181855,0.181951 0.02789,0.03062 0.05481,0.05832 0.08192,0.08778 0.06372,0.07208 0.125884,0.143972 0.185147,0.220318 0.01782,0.02732 0.03854,0.04806 0.06139,0.07654 0.07553,0.09727 0.149318,0.204235 0.22543,0.316235 0.0085,0.01938 0.02072,0.03643 0.03292,0.05348 0.05732,0.09495 0.11407,0.191446 0.170041,0.291433 0.02053,0.04379 0.04183,0.08468 0.06255,0.125564 0.04106,0.08293 0.08076,0.170712 0.119106,0.257716 0.02092,0.04631 0.04106,0.09359 0.06294,0.144941 0.03699,0.09359 0.07088,0.187765 0.106324,0.283875 0.01123,0.04515 0.03137,0.09127 0.04474,0.13971 0.04706,0.143778 0.0887,0.292595 0.127241,0.449938 l 0,0.01744 z m -22.75063,0.892706 c 0.685974,-1.443793 2.158242,-2.439779 3.862719,-2.439779 1.047553,0 2.005825,0.380955 2.751449,1.005481 0.467322,0.393163 0.846912,0.881467 1.113206,1.438948 l 0,0.0048 -6.159821,0 -1.567553,0 0,-0.0095 z m 31.087091,1.832886 C 42.539757,26.394525 41.241403,25.975978 39.754029,25.64114 L 39.577791,25.6051 c -0.356931,-0.07983 -0.722384,-0.152498 -1.101006,-0.226325 -0.836067,-0.16645 -1.620231,-0.256554 -2.234547,-0.403045 -0.713282,-0.175557 -1.191449,-0.42998 -1.230376,-0.978741 -0.05771,-1.55056 2.45959,-1.974726 3.674279,-0.647972 0.09548,0.09999 0.180499,0.211211 0.261065,0.334256 l 0.473326,0 4.555665,0.0043 0,-0.01822 C 43.659936,22.309819 42.985582,21.380296 42.183213,20.742206 41.840614,20.474608 41.476711,20.25332 41.106416,20.079895 l -0.0275,-0.01085 C 40.75549,19.916934 40.425092,19.799896 40.10244,19.704948 l -0.0397,-0.01628 c -0.02382,-0.005 -0.05132,-0.01143 -0.07611,-0.01783 l -9.68e-4,0 c -0.104969,-0.03023 -0.214392,-0.05794 -0.317229,-0.07867 -0.01937,-0.0058 -0.0399,-0.01066 -0.05888,-0.0155 -0.0827,-0.01822 -0.166555,-0.03449 -0.250219,-0.04922 -0.06294,-0.0126 -0.12879,-0.02383 -0.187472,-0.03527 l -0.0046,0 c -0.853497,-0.143392 -1.554771,-0.131959 -1.815448,-0.131959 -2.676112,0 -4.141602,0.548374 -5.255777,1.37074 l -0.0029,0 c -1.805184,-1.423833 -4.255479,-1.37074 -4.803948,-1.37074 -3.192432,0 -4.665281,0.779543 -5.866413,1.871834 0.377653,0.23427 0.732841,0.499156 1.061691,0.795432 0.09393,0.08449 0.183016,0.168775 0.274234,0.255198 l 0.01162,0.01511 c 0.283337,0.274768 0.54847,0.578214 0.784164,0.90065 l 0.0091,0.01027 c 0.07553,0.0996 0.145251,0.201329 0.214972,0.304609 0.01511,0.02732 0.03389,0.05232 0.04803,0.07828 0.05461,0.08332 0.108067,0.164706 0.157065,0.24764 0.02092,0.03817 0.04261,0.07673 0.0641,0.11045 0.0428,0.07693 0.08657,0.153273 0.127434,0.230588 0.02343,0.04224 0.04241,0.08507 0.06449,0.130021 0.03835,0.07053 0.07398,0.142035 0.108842,0.217024 0.02072,0.04689 0.04319,0.09611 0.0674,0.145523 0.03002,0.06859 0.05888,0.140484 0.09025,0.210823 0.01859,0.05193 0.03815,0.103862 0.06023,0.156374 0.02595,0.06918 0.05248,0.140484 0.07785,0.213149 0.01898,0.05096 0.03525,0.111225 0.05442,0.162574 0.02247,0.07053 0.0428,0.143972 0.06623,0.213924 0.01762,0.05484 0.0337,0.111225 0.04745,0.168 0.02053,0.07228 0.03951,0.144941 0.05365,0.21683 0.01356,0.05716 0.02847,0.114713 0.03854,0.174589 0.01878,0.07305 0.03002,0.146491 0.04454,0.222062 0.01104,0.05794 0.02227,0.114713 0.02944,0.174201 0.01375,0.07751 0.02324,0.155792 0.0366,0.235045 0.0029,0.05484 0.01453,0.111224 0.01762,0.165674 0.01065,0.08933 0.01491,0.177495 0.02247,0.265661 0.0039,0.04612 0.0066,0.09534 0.0095,0.140872 0.0079,0.136997 0.01201,0.26818 0.01201,0.406339 l 0,0.0072 0,0.0016 c 0,0.09398 -0.0077,0.18292 -0.01201,0.272249 -0.0029,0.0188 -0.0029,0.03934 -0.0056,0.06046 l 0.0027,0 c 2.176641,0.437536 3.92508,0.586934 4.287434,1.324623 0.05016,0.100373 0.08018,0.214892 0.07611,0.3391 -0.03099,0.904138 -0.789006,1.390893 -1.817579,1.377523 -0.36584,0 -0.673386,-0.02112 -0.939099,-0.07305 -0.465773,-0.09572 -0.797139,-0.28562 -1.089966,-0.615225 -0.162682,-0.186215 -0.312388,-0.415253 -0.465386,-0.696028 l -1.672328,0 -3.927791,0 c -0.783195,0.974865 -1.985296,1.599004 -3.334391,1.599004 -0.562607,0 -1.102361,-0.112 -1.595635,-0.311973 -1.145549,-0.459045 -2.047464,-1.399031 -2.448939,-2.573093 l 0,-0.01783 11.6633,0 c 0.03873,-0.211211 0.06565,-0.426104 0.08579,-0.643709 0.02382,-0.241828 0.03447,-0.484817 0.03447,-0.736139 l 0,-0.0099 c 0,-0.134284 -0.0037,-0.272056 -0.01065,-0.404208 0,-0.04844 -0.006,-0.09534 -0.0097,-0.144166 -0.0064,-0.08623 -0.01259,-0.17672 -0.02382,-0.264498 -0.0027,-0.05677 -0.01046,-0.109675 -0.01956,-0.167225 -0.01123,-0.0777 -0.01782,-0.157149 -0.03215,-0.23427 -0.0095,-0.05987 -0.02072,-0.114325 -0.03234,-0.172263 -0.01104,-0.07596 -0.02479,-0.150173 -0.04009,-0.224388 -0.01472,-0.05755 -0.02886,-0.113937 -0.04106,-0.172263 -0.01608,-0.0715 -0.03447,-0.144941 -0.05307,-0.216443 -0.0153,-0.05794 -0.03312,-0.112 -0.04939,-0.169937 -0.01917,-0.07111 -0.04241,-0.143391 -0.0674,-0.211986 -0.01472,-0.05736 -0.03273,-0.108512 -0.05403,-0.164125 -0.02498,-0.07344 -0.05229,-0.142422 -0.07669,-0.213536 -0.01782,-0.04961 -0.0399,-0.104443 -0.06217,-0.154436 -0.02692,-0.07267 -0.05829,-0.142616 -0.0887,-0.214118 -0.02343,-0.05038 -0.04474,-0.09456 -0.06468,-0.143391 -0.03525,-0.07615 -0.07321,-0.146879 -0.111747,-0.219543 -0.01879,-0.04166 -0.04106,-0.087 -0.06275,-0.12944 -0.04222,-0.07538 -0.08463,-0.150754 -0.124142,-0.224775 -0.02247,-0.0405 -0.04435,-0.07809 -0.0674,-0.112775 -0.05093,-0.08642 -0.102451,-0.167806 -0.155904,-0.249771 -0.01782,-0.02383 -0.0335,-0.05232 -0.05093,-0.07887 -0.06953,-0.102506 -0.14041,-0.204623 -0.214391,-0.304609 l -0.0056,-0.0079 C 22.158856,22.182317 21.897597,21.879839 21.61794,21.601002 l -0.01762,-0.01628 c -0.0916,-0.08371 -0.182242,-0.17265 -0.272298,-0.252097 -0.195605,-0.177107 -0.402637,-0.339875 -0.618577,-0.493924 -1.271822,-0.925259 -2.837438,-1.470532 -4.530682,-1.470532 -4.276395,0 -7.7388007,3.467737 -7.7388007,7.745439 0,3.065855 1.7780707,5.718976 4.3623837,6.970547 1.02102,0.497605 2.165795,0.776249 3.376417,0.776249 2.040104,0 3.896417,-0.792526 5.278823,-2.087308 0.04009,-0.03507 0.07805,-0.07189 0.11562,-0.108125 0.122786,-0.119363 0.242473,-0.239308 0.353833,-0.367584 l 0.01937,-0.01705 c 0.120462,-0.138934 0.236663,-0.278063 0.351509,-0.422616 0.02634,-0.03565 0.05074,-0.07228 0.07514,-0.105993 0.0827,-0.107931 0.164425,-0.219544 0.239568,-0.331931 0.03254,-0.05077 0.06449,-0.101536 0.09451,-0.151723 0.06817,-0.101537 0.129758,-0.207142 0.194056,-0.313716 0.02886,-0.05503 0.05752,-0.107931 0.09161,-0.161606 0.05113,-0.0996 0.101482,-0.201135 0.148931,-0.299377 l 1.457549,0 c -0.06159,0.170906 -0.131695,0.338713 -0.207613,0.501093 -0.02247,0.05251 -0.04803,0.101343 -0.07146,0.151336 -0.05365,0.116069 -0.110004,0.228263 -0.172365,0.339875 -0.0277,0.05561 -0.06023,0.106381 -0.0918,0.164125 -0.06178,0.10638 -0.123173,0.211986 -0.189989,0.314491 -0.03137,0.04883 -0.06488,0.102699 -0.09741,0.149592 -0.07534,0.11355 -0.154548,0.22555 -0.238019,0.333868 -0.02479,0.03507 -0.05035,0.07073 -0.07553,0.106187 -0.114651,0.14281 -0.229303,0.283488 -0.351508,0.418935 l -0.01607,0.02209 c -0.114845,0.125563 -0.233564,0.246283 -0.354219,0.362159 -0.0399,0.0405 -0.08076,0.07421 -0.115427,0.109674 -0.109422,0.101537 -0.21594,0.198423 -0.327106,0.291433 0.188246,0.114713 0.397021,0.224 0.62613,0.325924 1.000879,0.450713 2.383866,0.766367 4.260708,0.766367 l 0.0045,0 c 0.325557,0.0016 2.978622,0.02771 4.988127,-1.253509 0.252931,-0.162381 0.495985,-0.342782 0.724708,-0.549149 0.02479,-0.02228 0.04977,-0.04612 0.07243,-0.07034 0.101482,-0.09282 0.196186,-0.188927 0.28508,-0.29027 0.01356,-0.01899 0.02866,-0.03023 0.04086,-0.04515 0.100901,-0.113356 0.196573,-0.238726 0.284693,-0.365453 0.02363,-0.02887 0.04222,-0.06143 0.05984,-0.09204 0.07146,-0.102118 0.139442,-0.213731 0.203933,-0.329994 0.0184,-0.03372 0.0368,-0.06433 0.05462,-0.101342 0.07417,-0.142035 0.141184,-0.288526 0.203933,-0.444706 0.01007,-0.03255 0.0215,-0.06782 0.03292,-0.09921 0.04803,-0.126339 0.09006,-0.261979 0.127047,-0.397813 0.01511,-0.05213 0.03041,-0.107156 0.04009,-0.159668 0.04048,-0.156374 0.0734,-0.318754 0.09529,-0.488692 0.0041,-0.01841 0.007,-0.03139 0.01162,-0.04844 l 0.0012,-0.02558 c 0.114265,-0.959557 -0.05946,-1.702671 -0.44873,-2.291737 -0.04106,-0.06007 -0.08115,-0.119945 -0.126078,-0.176332 -0.04222,-0.05968 -0.09335,-0.11917 -0.146607,-0.176332 -0.04919,-0.05367 -0.101095,-0.110838 -0.152998,-0.159281 -0.05791,-0.05484 -0.116201,-0.109093 -0.17682,-0.156761 l -0.02285,-0.02073 c 0.04919,0.02073 0.101288,0.04418 0.15048,0.06705 0.0794,0.03662 0.152998,0.07402 0.224462,0.113744 0.07631,0.0405 0.152998,0.08216 0.2233,0.123432 0.0703,0.04321 0.137504,0.08487 0.20432,0.129827 0.0703,0.04476 0.1346,0.09127 0.200253,0.136609 0.06256,0.04883 0.121237,0.09534 0.17895,0.144554 0.06139,0.05077 0.118912,0.102311 0.173914,0.157149 0.03041,0.02713 0.05636,0.05794 0.08521,0.087 l 0.01007,0.0045 c 1.286153,0.269536 2.450294,0.431917 3.29895,0.651072 l 0.243248,0.06956 c 0.563381,0.167419 0.954785,0.371654 1.100231,0.677814 0.05171,0.103086 0.07495,0.212373 0.07011,0.335806 -0.0306,0.908207 -0.787457,1.393024 -1.81971,1.38101 -0.366808,0 -0.669512,-0.02248 -0.935225,-0.07538 -0.466935,-0.09417 -0.799658,-0.283875 -1.089967,-0.612706 -0.02169,-0.02538 -0.04203,-0.05116 -0.06178,-0.07828 -0.0077,0.11917 -0.01085,0.235239 -0.02556,0.362547 l -0.0019,0.025 c -0.0039,0.01957 -0.0076,0.03468 -0.0091,0.05135 -0.02557,0.168388 -0.05616,0.331543 -0.0949,0.48908 -0.01472,0.05484 -0.02556,0.10483 -0.04183,0.158892 -0.03854,0.137772 -0.07805,0.271668 -0.12724,0.397814 -0.01201,0.03139 -0.02072,0.06549 -0.03196,0.09688 -0.0612,0.156568 -0.130726,0.305384 -0.203352,0.44645 -0.02053,0.0341 -0.03931,0.06976 -0.05752,0.102699 -0.06314,0.11355 -0.13247,0.223225 -0.201416,0.330381 -0.02111,0.03023 -0.04048,0.05968 -0.05965,0.09107 -0.0918,0.126532 -0.184953,0.250546 -0.286435,0.364871 l -0.04067,0.04244 c -0.09044,0.102892 -0.186309,0.197646 -0.284499,0.291432 -0.02285,0.02383 -0.04687,0.0465 -0.07398,0.07034 -0.209356,0.188927 -0.428395,0.36119 -0.661959,0.510976 0.535881,0.201716 1.164141,0.367391 1.899888,0.470477 l 0.59921,0.06801 c 0.402056,0.03178 0.89901,0.06433 1.361684,0.06433 l 0.0097,0 c 0.499084,0.0047 6.567688,0.06065 7.216477,-4.73791 0.173721,-1.398062 -0.253512,-2.338048 -1.072924,-3.014117 l 0,0 z"
             id="Fill-45"
             mask="url(#mask-2)"
             inkscape:connector-curvature="0"
             style="fill:#009edd;fill-opacity:1" />
        </g>
      </g>
    </g>
  </g>
</svg>
