<?xml version="1.0" encoding="UTF-8" standalone="no"?>
<!-- Created with Inkscape (http://www.inkscape.org/) -->

<svg
   xmlns:dc="http://purl.org/dc/elements/1.1/"
   xmlns:cc="http://creativecommons.org/ns#"
   xmlns:rdf="http://www.w3.org/1999/02/22-rdf-syntax-ns#"
   xmlns:svg="http://www.w3.org/2000/svg"
   xmlns="http://www.w3.org/2000/svg"
   xmlns:sodipodi="http://sodipodi.sourceforge.net/DTD/sodipodi-0.dtd"
   xmlns:inkscape="http://www.inkscape.org/namespaces/inkscape"
   id="svg2"
   version="1.1"
   inkscape:version="0.91 r13725"
   xml:space="preserve"
   width="946.90625"
   height="770.67499"
   viewBox="0 0 946.90625 770.67499"
   sodipodi:docname="sine2020-logo.svg"
   inkscape:export-filename="/home/pospelov/Downloads/sine2020-logo.png"
   inkscape:export-xdpi="90"
   inkscape:export-ydpi="90"><metadata
     id="metadata8"><rdf:RDF><cc:Work
         rdf:about=""><dc:format>image/svg+xml</dc:format><dc:type
           rdf:resource="http://purl.org/dc/dcmitype/StillImage" /><dc:title></dc:title></cc:Work></rdf:RDF></metadata><defs
     id="defs6"><clipPath
       clipPathUnits="userSpaceOnUse"
       id="clipPath16"><path
         d="m 12.538,599.936 -0.345,-588.133 288.847,1.102 0.736,587.031 -289.238,0 z"
         id="path18"
         inkscape:connector-curvature="0" /></clipPath><clipPath
       clipPathUnits="userSpaceOnUse"
       id="clipPath24"><path
         d="m 315.867,491.726 405.82,0 0,-225.034 -405.82,0 0,225.034 z"
         id="path26"
         inkscape:connector-curvature="0" /></clipPath><clipPath
       clipPathUnits="userSpaceOnUse"
       id="clipPath46"><path
         d="m -798.908,421.99 1100.684,0 0,-807.03 -1100.684,0 0,807.03 z"
         id="path48"
         inkscape:connector-curvature="0" /></clipPath><clipPath
       clipPathUnits="userSpaceOnUse"
       id="clipPath62"><path
         d="m 12.5396,626.818 1100.6904,0 0,-494.718 -1100.6904,0 0,494.718 z"
         id="path64"
         inkscape:connector-curvature="0" /></clipPath><clipPath
       clipPathUnits="userSpaceOnUse"
       id="clipPath66"><path
         d="m 91.591,331.278 c 2.623,-13.34 7.159,-24.876 13.613,-34.605 6.445,-9.73 14.318,-17.823 23.615,-24.273 9.293,-6.449 19.733,-11.205 31.326,-14.267 11.589,-3.064 23.832,-4.59 36.737,-4.59 13.122,0 25.092,1.311 35.916,3.934 10.825,2.627 20.117,6.395 27.88,11.316 7.759,4.92 13.721,10.936 17.88,18.039 4.15,7.106 6.231,15.034 6.231,23.784 0,8.743 -2.024,16.287 -6.069,22.633 -4.048,6.338 -10.659,11.916 -19.844,16.729 -9.184,4.805 -21.211,9.291 -36.081,13.447 -14.873,4.149 -33.13,8.529 -54.779,13.122 -24.714,5.244 -46.034,11.528 -63.961,18.857 -17.934,7.329 -32.637,15.961 -44.117,25.917 -11.48,9.945 -19.959,21.48 -25.42,34.602 -5.47,13.121 -8.202,28.208 -8.202,45.267 0,18.146 3.823,34.928 11.482,50.351 7.651,15.411 18.419,28.697 32.308,39.852 13.883,11.152 30.556,19.845 50.023,26.076 19.46,6.234 41.003,9.349 64.616,9.349 23.619,0 45.268,-3.115 64.947,-9.349 19.682,-6.231 36.902,-15.146 51.664,-26.732 14.759,-11.593 26.62,-25.863 35.586,-42.807 8.965,-16.947 14.435,-36.031 16.402,-57.238 l -78.722,0 c -9.185,41.109 -38.378,61.663 -87.58,61.663 -26.24,0 -46.307,-4.425 -60.189,-13.279 -13.89,-8.858 -20.831,-20.946 -20.831,-36.246 0,-6.349 1.529,-11.865 4.592,-16.564 3.06,-4.708 7.925,-8.97 14.599,-12.797 6.668,-3.822 15.196,-7.378 25.582,-10.656 10.387,-3.28 23.014,-6.452 37.887,-9.514 12.902,-2.846 26.185,-5.854 39.852,-9.02 13.664,-3.172 27.005,-7.052 40.018,-11.646 13.007,-4.59 25.307,-10.117 36.903,-16.559 11.586,-6.457 21.753,-14.386 30.504,-23.785 8.742,-9.404 15.63,-20.451 20.666,-33.127 5.028,-12.684 7.543,-27.446 7.543,-44.282 0,-19.901 -4.099,-38.105 -12.299,-54.611 -8.201,-16.517 -19.633,-30.729 -34.28,-42.642 -14.65,-11.922 -31.982,-21.215 -51.99,-27.886 -20.006,-6.665 -41.932,-10.003 -65.763,-10.003 -29.742,0 -55.876,3.661 -78.396,10.989 -22.528,7.326 -41.493,17.655 -56.911,30.996 -15.417,13.337 -27.444,29.301 -36.081,47.892 -8.641,18.581 -13.94,39.139 -15.908,61.663 l 79.051,0 z"
         id="path68"
         inkscape:connector-curvature="0" /></clipPath><clipPath
       clipPathUnits="userSpaceOnUse"
       id="clipPath90"><path
         d="m -750.272,422.59 1129.356,0 0,-808.23 -1129.356,0 0,808.23 z"
         id="path92"
         inkscape:connector-curvature="0" /></clipPath><clipPath
       clipPathUnits="userSpaceOnUse"
       id="clipPath94"><path
         d="m 18.0566,422.59 361.0274,0 0,-448.2765 -361.0274,0 0,448.2765 z"
         id="path96"
         inkscape:connector-curvature="0" /></clipPath><clipPath
       clipPathUnits="userSpaceOnUse"
       id="clipPath98"><path
         d="m 167.107,412.641 c -20.364,-6.231 -38.56,-15.146 -54.589,-26.734 l 0,0 C 96.485,374.314 83.063,360.047 72.238,343.101 l 0,0 C 61.417,326.154 53.859,307.072 49.567,285.864 l 0,0 78.722,0 c 13.688,41.11 45.136,61.664 94.334,61.664 l 0,0 c 26.243,0 45.825,-4.427 58.735,-13.28 l 0,0 c 12.92,-8.858 18.537,-20.945 16.861,-36.245 l 0,0 c -0.696,-6.35 -2.828,-11.868 -6.406,-16.564 l 0,0 c -3.579,-4.709 -8.908,-8.97 -16,-12.798 l 0,0 c -7.088,-3.823 -16.007,-7.378 -26.752,-10.656 l 0,0 c -10.743,-3.281 -23.721,-6.453 -38.931,-9.515 l 0,0 c -13.212,-2.845 -26.822,-5.853 -40.84,-9.02 l 0,0 c -14.009,-3.172 -27.776,-7.052 -41.292,-11.646 l 0,0 c -13.509,-4.59 -26.416,-10.117 -38.719,-16.56 l 0,0 C 76.986,204.788 65.95,196.86 56.171,187.46 l 0,0 C 46.398,178.056 38.297,167.01 31.875,154.333 l 0,0 C 25.458,141.649 21.325,126.887 19.48,110.052 l 0,0 C 17.301,90.15 19.403,71.946 25.796,55.439 l 0,0 C 32.188,38.923 42.061,24.714 55.402,12.798 l 0,0 C 68.749,0.876 85.059,-8.417 104.339,-15.089 l 0,0 c 19.276,-6.664 40.835,-9.998 64.668,-9.998 l 0,0 c 29.742,0 56.276,3.66 79.597,10.987 l 0,0 c 23.329,7.324 43.428,17.654 60.307,30.996 l 0,0 c 16.879,13.338 30.654,29.302 41.328,47.89 l 0,0 c 10.677,18.58 18.229,39.138 22.665,61.664 l 0,0 -79.053,0 c -4.081,-13.341 -9.884,-24.876 -17.399,-34.606 l 0,0 C 268.936,82.114 260.178,74.02 250.173,67.571 l 0,0 c -9.999,-6.449 -20.96,-11.205 -32.887,-14.267 l 0,0 c -11.926,-3.064 -24.333,-4.59 -37.243,-4.59 l 0,0 c -13.118,0 -24.948,1.31 -35.481,3.933 l 0,0 c -10.542,2.628 -19.418,6.396 -26.642,11.316 l 0,0 c -7.221,4.921 -12.523,10.936 -15.903,18.04 l 0,0 c -3.37,7.106 -4.583,15.035 -3.624,23.784 l 0,0 c 0.956,8.743 3.807,16.287 8.548,22.632 l 0,0 c 4.741,6.339 11.966,11.916 21.678,16.728 l 0,0 c 9.708,4.808 22.23,9.293 37.552,13.449 l 0,0 c 15.329,4.152 34.064,8.528 56.219,13.122 l 0,0 c 25.288,5.246 47.297,11.53 66.028,18.857 l 0,0 c 18.735,7.33 34.383,15.961 46.955,25.916 l 0,0 c 12.57,9.945 22.309,21.483 29.212,34.603 l 0,0 c 6.905,13.122 11.29,28.209 13.161,45.269 l 0,0 c 1.988,18.146 0.004,34.929 -5.965,50.348 l 0,0 c -5.962,15.414 -15.275,28.7 -27.945,39.853 l 0,0 c -12.662,11.153 -28.378,19.846 -47.164,26.077 l 0,0 c -18.777,6.233 -39.978,9.348 -63.59,9.348 l 0,0 c -23.62,0 -45.61,-3.115 -65.975,-9.348 M 72.744,342.778 c 10.735,16.806 24.235,31.153 40.126,42.643 l 0,0 c 15.911,11.502 34.219,20.467 54.413,26.646 l 0,0 c 20.209,6.186 42.347,9.323 65.799,9.323 l 0,0 c 23.444,0 44.776,-3.136 63.402,-9.319 l 0,0 c 18.61,-6.172 34.408,-14.906 46.955,-25.958 l 0,0 c 12.535,-11.033 21.883,-24.363 27.783,-39.618 l 0,0 c 5.902,-15.25 7.897,-32.094 5.928,-50.067 l 0,0 c -1.854,-16.907 -6.26,-32.067 -13.095,-45.055 l 0,0 c -6.833,-12.986 -16.608,-24.563 -29.054,-34.412 l 0,0 c -12.453,-9.86 -28.199,-18.55 -46.802,-25.827 l 0,0 c -18.606,-7.278 -40.788,-13.613 -65.931,-18.828 l 0,0 c -22.005,-4.563 -40.931,-8.981 -56.254,-13.131 l 0,0 c -15.288,-4.146 -27.959,-8.685 -37.662,-13.489 l 0,0 c -9.748,-4.832 -17.114,-10.52 -21.892,-16.908 l 0,0 c -4.784,-6.403 -7.699,-14.116 -8.664,-22.925 l 0,0 C 96.83,97.04 98.068,88.93 101.475,81.744 l 0,0 c 3.412,-7.169 8.831,-13.318 16.106,-18.277 l 0,0 c 7.244,-4.932 16.272,-8.769 26.836,-11.402 l 0,0 c 10.526,-2.622 22.512,-3.951 35.626,-3.951 l 0,0 c 12.911,0 25.491,1.551 37.393,4.609 l 0,0 c 11.93,3.063 23.054,7.888 33.062,14.343 l 0,0 c 10.009,6.451 18.901,14.665 26.428,24.412 l 0,0 c 7.451,9.644 13.293,21.207 17.369,34.372 l 0,0 77.878,0 c -4.427,-22.098 -11.98,-42.538 -22.455,-60.765 l 0,0 C 339.132,46.648 325.277,30.593 308.539,17.366 l 0,0 C 291.798,4.134 271.572,-6.26 248.425,-13.528 l 0,0 C 225.276,-20.8 198.556,-24.487 169.007,-24.487 l 0,0 c -23.654,0 -45.345,3.353 -64.472,9.966 l 0,0 C 85.421,-7.907 69.025,1.435 55.802,13.245 l 0,0 C 42.585,25.051 32.678,39.319 26.356,55.656 l 0,0 c -6.326,16.333 -8.439,34.612 -6.281,54.33 l 0,0 c 1.829,16.682 5.979,31.511 12.336,44.076 l 0,0 c 6.362,12.56 14.495,23.651 24.176,32.965 l 0,0 c 9.693,9.317 20.786,17.286 32.97,23.685 l 0,0 c 12.258,6.419 25.256,11.979 38.634,16.524 l 0,0 c 13.403,4.556 27.276,8.469 41.231,11.629 l 0,0 c 14.282,3.225 28.021,6.26 40.826,9.017 l 0,0 c 15.149,3.049 28.266,6.255 38.988,9.529 l 0,0 c 10.724,3.272 19.761,6.873 26.862,10.702 l 0,0 c 7.133,3.849 12.582,8.211 16.192,12.962 l 0,0 c 3.625,4.758 5.821,10.43 6.526,16.863 l 0,0 c 1.695,15.472 -4.065,27.855 -17.119,36.804 l 0,0 c -12.951,8.882 -32.826,13.386 -59.074,13.386 l 0,0 c -49.093,0 -80.975,-20.749 -94.766,-61.663 l 0,0 -77.556,0 c 4.286,20.754 11.834,39.698 22.443,56.313"
         id="path100"
         inkscape:connector-curvature="0" /></clipPath><clipPath
       clipPathUnits="userSpaceOnUse"
       id="clipPath102"><path
         d="m 18.0566,422.59 361.0274,0 0,-448.2765 -361.0274,0 0,448.2765 z"
         id="path104"
         inkscape:connector-curvature="0" /></clipPath><clipPath
       clipPathUnits="userSpaceOnUse"
       id="clipPath106"><path
         d="m 18.0566,422.59 361.0274,0 0,-448.2765 -361.0274,0 0,448.2765 z"
         id="path108"
         inkscape:connector-curvature="0" /></clipPath><clipPath
       clipPathUnits="userSpaceOnUse"
       id="clipPath154"><path
         d="m 0,616.54 757.525,0 L 757.525,0 0,0 0,616.54 Z"
         id="path156"
         inkscape:connector-curvature="0" /></clipPath><clipPath
       clipPathUnits="userSpaceOnUse"
       id="clipPath162"><path
         d="m 307.872,255.634 137.175,0 0,-225.9597 -137.175,0 0,225.9597 z"
         id="path164"
         inkscape:connector-curvature="0" /></clipPath><clipPath
       clipPathUnits="userSpaceOnUse"
       id="clipPath178"><path
         d="m 443.863,257.472 142.12,0 0,-222.1522 -142.12,0 0,222.1522 z"
         id="path180"
         inkscape:connector-curvature="0" /></clipPath><clipPath
       clipPathUnits="userSpaceOnUse"
       id="clipPath194"><path
         d="m 590.063,257.472 137.174,0 0,-225.9598 -137.174,0 0,225.9598 z"
         id="path196"
         inkscape:connector-curvature="0" /></clipPath><clipPath
       clipPathUnits="userSpaceOnUse"
       id="clipPath210"><path
         d="m 312.753,730.722 423.464,0 0,-557.296 -423.464,0 0,557.296 z"
         id="path212"
         inkscape:connector-curvature="0" /></clipPath><clipPath
       clipPathUnits="userSpaceOnUse"
       id="clipPath232"><path
         d="m 143.345,126.45 80.002,0 0,-74.908 -80.002,0 0,74.908 z"
         id="path234"
         inkscape:connector-curvature="0" /></clipPath></defs><sodipodi:namedview
     pagecolor="#ffffff"
     bordercolor="#666666"
     borderopacity="1"
     objecttolerance="10"
     gridtolerance="10"
     guidetolerance="10"
     inkscape:pageopacity="0"
     inkscape:pageshadow="2"
     inkscape:window-width="2004"
     inkscape:window-height="1027"
     id="namedview4"
     showgrid="false"
     inkscape:zoom="0.30622507"
     inkscape:cx="473.45313"
     inkscape:cy="385.33749"
     inkscape:window-x="0"
     inkscape:window-y="0"
     inkscape:window-maximized="0"
     inkscape:current-layer="g10" /><g
     id="g10"
     inkscape:groupmode="layer"
     inkscape:label="sine2020_final"
     transform="matrix(1.25,0,0,-1.25,0,770.675)"><g
       id="g12"><g
         id="g14"
         clip-path="url(#clipPath16)"><g
           id="g20"><g
             id="g22" /><g
             id="g28"><g
               clip-path="url(#clipPath24)"
               id="g30"
               style="opacity:0.69999701"><path
                 d="m 354.293,266.692 -38.426,0 0,225.034 38.426,0 0,-225.034 z"
                 style="fill:#231f20;fill-opacity:1;fill-rule:nonzero;stroke:none"
                 id="path32"
                 inkscape:connector-curvature="0" /><g
                 transform="translate(541.832,266.6919)"
                 id="g34"><path
                   d="m 0,0 -36.387,0 -92.379,150.534 0,-150.534 -37.172,0 0,225.034 36.543,0 91.909,-150.704 0,150.704 37.486,0 L 0,0 Z"
                   style="fill:#231f20;fill-opacity:1;fill-rule:nonzero;stroke:none"
                   id="path36"
                   inkscape:connector-curvature="0" /></g><g
                 transform="translate(721.6865,266.6919)"
                 id="g38"><path
                   d="m 0,0 -158.254,0 0,225.034 153.705,0 0,-38.7 -115.121,0 0,-50.803 107.749,0 0,-38.357 -107.749,0 0,-58.475 L 0,38.699 0,0 Z"
                   style="fill:#231f20;fill-opacity:1;fill-rule:nonzero;stroke:none"
                   id="path40"
                   inkscape:connector-curvature="0" /></g></g></g></g><g
           id="g42"><g
             id="g44" /><g
             id="g50"><g
               clip-path="url(#clipPath46)"
               id="g52"
               style="opacity:0.30000299"><g
                 transform="translate(301.7764,126.4497)"
                 id="g54"><path
                   d="m 0,0 c -1.967,-22.526 -7.268,-43.084 -15.907,-61.663 -8.639,-18.589 -20.666,-34.553 -36.081,-47.891 -15.418,-13.342 -34.383,-23.672 -56.911,-30.996 -22.522,-7.326 -48.653,-10.987 -78.396,-10.987 -23.831,0 -45.757,3.334 -65.764,9.998 -20.009,6.672 -37.338,15.965 -51.989,27.887 -14.649,11.917 -26.078,26.126 -34.279,42.641 -8.201,16.507 -12.3,34.711 -12.3,54.613 0,16.835 2.516,31.598 7.544,44.281 5.034,12.678 11.923,23.723 20.666,33.127 8.749,9.4 18.918,17.328 30.503,23.785 11.597,6.442 23.896,11.969 36.901,16.559 13.016,4.595 26.357,8.474 40.018,11.647 13.669,3.166 26.952,6.175 39.853,9.02 14.872,3.061 27.501,6.234 37.888,9.514 10.387,3.278 18.914,6.833 25.583,10.656 6.672,3.828 11.538,8.09 14.596,12.798 3.065,4.697 4.594,10.215 4.594,16.564 0,15.3 -6.941,27.386 -20.831,36.245 -13.882,8.853 -33.948,13.28 -60.19,13.28 -49.2,0 -78.394,-20.554 -87.578,-61.663 l -78.723,0 c 1.968,21.208 7.437,40.289 16.403,57.236 8.965,16.946 20.827,31.214 35.585,42.807 14.762,11.587 31.982,20.502 51.663,26.733 19.68,6.234 41.33,9.349 64.947,9.349 23.614,0 45.156,-3.115 64.616,-9.349 19.466,-6.231 36.142,-14.924 50.024,-26.077 13.89,-11.153 24.657,-24.439 32.309,-39.852 7.658,-15.42 11.481,-32.203 11.481,-50.349 0,-17.059 -2.731,-32.147 -8.201,-45.269 -5.462,-13.12 -13.94,-24.657 -25.421,-34.602 -11.482,-9.956 -26.183,-18.587 -44.117,-25.917 -17.927,-7.327 -39.246,-13.611 -63.961,-18.856 -21.649,-4.595 -39.906,-8.971 -54.779,-13.123 -14.87,-4.155 -26.898,-8.64 -36.081,-13.448 -9.185,-4.813 -15.797,-10.39 -19.844,-16.728 -4.045,-6.345 -6.069,-13.889 -6.069,-22.633 0,-8.749 2.081,-16.678 6.23,-23.784 4.161,-7.104 10.12,-13.118 17.88,-18.039 7.764,-4.921 17.055,-8.689 27.881,-11.317 10.823,-2.623 22.794,-3.932 35.916,-3.932 12.906,0 25.148,1.525 36.737,4.589 11.593,3.062 22.034,7.818 31.326,14.267 9.296,6.449 17.17,14.543 23.615,24.274 6.454,9.729 10.99,21.265 13.614,34.605 L 0,0 Z"
                   style="fill:#231f20;fill-opacity:1;fill-rule:nonzero;stroke:none"
                   id="path56"
                   inkscape:connector-curvature="0" /></g></g></g></g><g
           id="g58"><g
             id="g60" /><g
             id="g70"><g
               clip-path="url(#clipPath62)"
               id="g72"
               style="opacity:0.80000299"><g
                 transform="translate(91.5908,331.2783)"
                 id="g74"><path
                   d="m 0,0 c 2.623,-13.34 7.16,-24.876 13.613,-34.605 6.446,-9.73 14.318,-17.824 23.616,-24.273 9.292,-6.45 19.732,-11.205 31.325,-14.267 11.589,-3.064 23.832,-4.59 36.738,-4.59 13.121,0 25.091,1.31 35.916,3.933 10.824,2.628 20.116,6.396 27.879,11.317 7.76,4.92 13.721,10.936 17.88,18.038 4.15,7.107 6.231,15.035 6.231,23.785 0,8.743 -2.024,16.287 -6.069,22.633 -4.048,6.338 -10.659,11.915 -19.844,16.728 -9.184,4.805 -21.211,9.292 -36.08,13.448 -14.873,4.149 -33.131,8.528 -54.78,13.122 -24.714,5.244 -46.033,11.528 -63.961,18.857 -17.934,7.329 -32.636,15.96 -44.116,25.916 -11.481,9.946 -19.959,21.48 -25.421,34.603 -5.47,13.121 -8.201,28.208 -8.201,45.267 0,18.146 3.822,34.928 11.481,50.35 7.651,15.412 18.419,28.698 32.308,39.853 13.883,11.152 30.556,19.845 50.023,26.075 19.46,6.234 41.003,9.35 64.616,9.35 23.619,0 45.268,-3.116 64.947,-9.35 19.682,-6.23 36.902,-15.146 51.665,-26.732 14.758,-11.592 26.619,-25.862 35.585,-42.807 8.965,-16.946 14.435,-36.03 16.402,-57.237 l -78.722,0 c -9.185,41.108 -38.378,61.663 -87.58,61.663 -26.24,0 -46.306,-4.426 -60.189,-13.28 -13.89,-8.858 -20.831,-20.945 -20.831,-36.246 0,-6.348 1.529,-11.864 4.592,-16.563 3.06,-4.708 7.925,-8.97 14.599,-12.797 6.669,-3.822 15.196,-7.379 25.583,-10.656 10.386,-3.28 23.013,-6.452 37.886,-9.514 12.902,-2.846 26.185,-5.854 39.852,-9.02 13.664,-3.172 27.005,-7.052 40.018,-11.646 13.007,-4.59 25.307,-10.118 36.903,-16.56 11.586,-6.457 21.753,-14.385 30.504,-23.785 8.742,-9.403 15.63,-20.45 20.666,-33.127 5.028,-12.683 7.544,-27.445 7.544,-44.281 0,-19.901 -4.1,-38.105 -12.3,-54.611 -8.201,-16.517 -19.632,-30.73 -34.279,-42.642 -14.651,-11.923 -31.982,-21.215 -51.991,-27.887 -20.006,-6.665 -41.931,-10.003 -65.762,-10.003 -29.743,0 -55.876,3.662 -78.396,10.99 -22.529,7.325 -41.494,17.655 -56.912,30.995 -15.417,13.338 -27.443,29.302 -36.081,47.892 -8.641,18.581 -13.94,39.14 -15.908,61.664 L 0,0 Z"
                   style="fill:#231f20;fill-opacity:1;fill-rule:nonzero;stroke:none"
                   id="path76"
                   inkscape:connector-curvature="0" /></g><g
                 id="g78"><g
                   clip-path="url(#clipPath66)"
                   id="g80"><g
                     transform="translate(428.8037,493.9292)"
                     id="g82"><path
                       d="M 0,0 0,0 0,-4.706 0,0 Z"
                       style="fill:#231f20;fill-opacity:1;fill-rule:nonzero;stroke:none"
                       id="path84"
                       inkscape:connector-curvature="0" /></g></g></g></g></g></g><g
           id="g86"><g
             id="g88" /><g
             id="g110"><g
               clip-path="url(#clipPath90)"
               id="g112"
               style="opacity:0.80000299"><g
                 id="g114"><g
                   id="g116" /><g
                   id="g118"><g
                     clip-path="url(#clipPath94)"
                     id="g120"
                     style="opacity:0.89999402"><g
                       transform="translate(372.9043,126.4497)"
                       id="g122"><path
                         d="m 0,0 c -4.437,-22.526 -11.988,-43.084 -22.666,-61.663 -10.673,-18.589 -24.448,-34.553 -41.327,-47.891 -16.879,-13.342 -36.978,-23.672 -60.307,-30.996 -23.322,-7.326 -49.855,-10.987 -79.598,-10.987 -23.831,0 -45.391,3.334 -64.667,9.998 -19.281,6.672 -35.59,15.965 -48.937,27.887 -13.341,11.917 -23.214,26.126 -29.606,42.641 -6.393,16.507 -8.496,34.711 -6.317,54.613 1.845,16.835 5.979,31.598 12.396,44.281 6.422,12.678 14.522,23.723 24.295,33.127 9.78,9.4 20.816,17.328 33.109,23.785 12.303,6.442 25.209,11.969 38.718,16.559 13.517,4.595 27.284,8.474 41.293,11.647 14.018,3.166 27.628,6.175 40.84,9.02 15.21,3.061 28.188,6.234 38.93,9.514 10.745,3.278 19.664,6.833 26.753,10.656 7.091,3.828 12.421,8.09 16,12.798 3.578,4.697 5.71,10.215 6.406,16.564 1.676,15.3 -3.94,27.386 -16.861,36.245 -12.91,8.853 -32.492,13.28 -58.735,13.28 -49.199,0 -80.646,-20.554 -94.335,-61.663 l -78.722,0 c 4.293,21.208 11.851,40.289 22.672,57.236 10.824,16.946 24.248,31.214 40.28,42.807 16.029,11.587 34.225,20.502 54.589,26.733 20.365,6.234 42.355,9.349 65.975,9.349 23.612,0 44.812,-3.115 63.591,-9.349 18.785,-6.231 34.501,-14.924 47.163,-26.077 12.67,-11.153 21.984,-24.439 27.945,-39.852 5.969,-15.42 7.953,-32.203 5.965,-50.349 -1.871,-17.059 -6.256,-32.147 -13.161,-45.269 -6.903,-13.12 -16.643,-24.657 -29.212,-34.602 -12.573,-9.956 -28.22,-18.587 -46.955,-25.917 -18.732,-7.327 -40.74,-13.611 -66.029,-18.856 -22.154,-4.595 -40.889,-8.971 -56.218,-13.123 -15.322,-4.155 -27.844,-8.64 -37.553,-13.448 -9.712,-4.813 -16.936,-10.39 -21.678,-16.728 -4.741,-6.345 -7.591,-13.889 -8.548,-22.633 -0.959,-8.749 0.255,-16.678 3.624,-23.784 3.381,-7.104 8.682,-13.118 15.903,-18.039 7.225,-4.921 16.101,-8.689 26.642,-11.317 10.534,-2.623 22.364,-3.932 35.482,-3.932 12.909,0 25.317,1.525 37.243,4.589 11.927,3.062 22.888,7.818 32.887,14.267 10.005,6.449 18.763,14.543 26.278,24.274 7.516,9.729 13.319,21.265 17.4,34.605 L 0,0 Z"
                         style="fill:#1b466e;fill-opacity:1;fill-rule:nonzero;stroke:none"
                         id="path124"
                         inkscape:connector-curvature="0" /></g><g
                       transform="translate(222.623,348.1279)"
                       id="g126"><path
                         d="m 0,0 c 26.248,0 46.123,-4.503 59.074,-13.385 13.054,-8.95 18.814,-21.333 17.119,-36.805 -0.706,-6.432 -2.901,-12.105 -6.526,-16.863 -3.611,-4.751 -9.059,-9.113 -16.192,-12.962 -7.1,-3.829 -16.138,-7.43 -26.862,-10.702 -10.722,-3.274 -23.839,-6.48 -38.988,-9.529 -12.805,-2.757 -26.543,-5.792 -40.826,-9.017 -13.955,-3.16 -27.828,-7.073 -41.231,-11.629 -13.378,-4.546 -26.376,-10.105 -38.633,-16.523 -12.185,-6.4 -23.278,-14.369 -32.972,-23.686 -9.68,-9.314 -17.814,-20.405 -24.175,-32.965 -6.357,-12.565 -10.507,-27.394 -12.335,-44.076 -2.159,-19.718 -0.046,-37.997 6.279,-54.33 6.323,-16.337 16.23,-30.606 29.447,-42.411 13.222,-11.81 29.618,-21.152 48.733,-27.766 19.127,-6.613 40.818,-9.966 64.471,-9.966 29.55,0 56.27,3.687 79.419,10.959 23.148,7.267 43.373,17.662 60.114,30.894 16.738,13.227 30.592,29.282 41.179,47.72 10.475,18.226 18.029,38.667 22.455,60.764 l -77.879,0 c -4.075,-13.165 -9.917,-24.727 -17.368,-34.372 -7.527,-9.747 -16.419,-17.96 -26.428,-24.412 -10.008,-6.455 -21.132,-11.28 -33.063,-14.343 -11.901,-3.058 -24.481,-4.609 -37.392,-4.609 -13.113,0 -25.1,1.329 -35.627,3.951 -10.563,2.633 -19.592,6.47 -26.835,11.402 -7.275,4.959 -12.694,11.108 -16.106,18.278 -3.407,7.185 -4.645,15.295 -3.68,24.108 0.965,8.809 3.88,16.522 8.665,22.925 4.778,6.389 12.144,12.077 21.892,16.908 9.702,4.804 22.374,9.343 37.662,13.489 15.322,4.15 34.249,8.568 56.254,13.131 25.143,5.215 47.325,11.55 65.931,18.828 18.603,7.277 34.349,15.967 46.801,25.827 12.447,9.849 22.222,21.426 29.055,34.412 6.835,12.989 11.241,28.148 13.094,45.055 1.97,17.972 -0.025,34.817 -5.927,50.067 -5.901,15.256 -15.248,28.585 -27.783,39.619 -12.547,11.052 -28.345,19.785 -46.955,25.957 -18.626,6.183 -39.958,9.319 -63.402,9.319 -23.452,0 -45.59,-3.137 -65.799,-9.323 -20.195,-6.179 -38.502,-15.144 -54.413,-26.646 -15.891,-11.49 -29.391,-25.837 -40.126,-42.643 -10.609,-16.615 -18.158,-35.558 -22.443,-56.314 l 77.556,0 C -80.975,-20.749 -49.093,0 0,0 m -53.617,-373.814 c -23.787,0 -45.61,3.374 -64.863,10.03 -19.266,6.667 -35.799,16.09 -49.141,28.007 -13.359,11.932 -23.374,26.357 -29.766,42.871 -6.395,16.514 -8.533,34.984 -6.353,54.895 1.844,16.825 6.035,31.793 12.457,44.487 6.423,12.681 14.637,23.88 24.414,33.288 9.776,9.395 20.961,17.431 33.246,23.884 12.313,6.447 25.369,12.031 38.805,16.596 13.443,4.569 27.356,8.494 41.352,11.664 14.287,3.226 28.029,6.261 40.846,9.021 15.119,3.043 28.198,6.239 38.882,9.502 10.649,3.249 19.613,6.819 26.643,10.61 6.982,3.768 12.3,8.019 15.807,12.633 3.491,4.582 5.606,10.055 6.288,16.266 1.643,14.998 -3.944,27.005 -16.604,35.685 C 45.647,-5.633 26,-1.2 0,-1.2 c -24.366,0 -44.605,-5.154 -60.155,-15.318 -15.534,-10.154 -26.842,-25.608 -33.61,-45.935 l -0.137,-0.411 -79.888,0 0.145,0.719 c 4.288,21.184 11.943,40.509 22.754,57.441 10.817,16.934 24.421,31.391 40.434,42.97 16.019,11.579 34.445,20.603 54.766,26.82 20.322,6.222 42.579,9.376 66.15,9.376 23.573,0 45.032,-3.156 63.78,-9.38 18.763,-6.223 34.701,-15.037 47.37,-26.196 12.681,-11.162 22.138,-24.649 28.109,-40.086 5.972,-15.43 7.992,-32.465 6.001,-50.631 -1.87,-17.057 -6.32,-32.36 -13.226,-45.483 -6.91,-13.135 -16.792,-24.841 -29.371,-34.793 -12.545,-9.935 -28.395,-18.684 -47.108,-26.004 -18.669,-7.303 -40.917,-13.657 -66.125,-18.886 -21.982,-4.559 -40.885,-8.971 -56.184,-13.114 -15.213,-4.126 -27.811,-8.637 -37.443,-13.407 -9.578,-4.746 -16.8,-10.315 -21.464,-16.55 -4.654,-6.229 -7.491,-13.745 -8.433,-22.338 -0.94,-8.588 0.261,-16.482 3.571,-23.463 3.319,-6.974 8.601,-12.963 15.698,-17.8 7.125,-4.852 16.024,-8.631 26.449,-11.23 10.433,-2.598 22.321,-3.914 35.337,-3.914 12.81,0 25.29,1.537 37.094,4.57 11.805,3.031 22.811,7.805 32.711,14.19 9.894,6.377 18.685,14.498 26.129,24.136 7.441,9.634 13.262,21.212 17.3,34.414 l 0.13,0.425 80.227,0 -0.141,-0.716 c -4.432,-22.501 -12.08,-43.309 -22.734,-61.846 -10.663,-18.571 -24.618,-34.742 -41.476,-48.063 -16.856,-13.323 -37.211,-23.786 -60.499,-31.098 -23.265,-7.308 -50.106,-11.013 -79.778,-11.013"
                         style="fill:#ffffff;fill-opacity:1;fill-rule:nonzero;stroke:none"
                         id="path128"
                         inkscape:connector-curvature="0" /></g></g></g></g><g
                 id="g130"><g
                   clip-path="url(#clipPath98)"
                   id="g132"><g
                     id="g134"><g
                       id="g136" /><g
                       id="g138"><g
                         clip-path="url(#clipPath102)"
                         id="g140"
                         style="opacity:0.89999402" /></g></g></g></g><g
                 id="g142"><g
                   id="g144" /><g
                   id="g146"><g
                     clip-path="url(#clipPath106)"
                     id="g148"
                     style="opacity:0.89999402" /></g></g></g></g></g></g></g><g
       id="g150"><g
         id="g152"
         clip-path="url(#clipPath154)"><g
           id="g158"><g
             id="g160" /><g
             id="g166"><g
               clip-path="url(#clipPath162)"
               id="g168"
               style="opacity:0.89999402"><g
                 transform="translate(378.9028,255.6343)"
                 id="g170"><path
                   d="m 0,0 c 11.428,0 21.362,-2.482 29.8,-7.45 8.437,-4.965 15.405,-12.306 20.907,-22.015 5.501,-9.712 9.536,-21.66 12.109,-35.84 2.569,-14.181 3.653,-30.487 3.244,-48.917 -0.808,-36.641 -7.163,-64.424 -19.064,-83.348 -11.901,-18.93 -29.23,-28.39 -51.984,-28.39 -22.862,0 -39.774,9.46 -50.732,28.39 -10.961,18.924 -16.036,46.707 -15.228,83.348 0.409,18.43 2.182,34.736 5.326,48.917 3.148,14.18 7.681,26.128 13.614,35.84 5.929,9.709 13.217,17.05 21.878,22.015 C -21.477,-2.482 -11.43,0 0,0 m -4.259,-193.018 c 5.031,0 9.467,1.378 13.301,4.138 3.836,2.759 7.105,7.255 9.816,13.491 2.705,6.235 4.823,14.344 6.355,24.336 1.533,9.987 2.459,22.264 2.783,36.831 0.319,14.568 -0.062,26.984 -1.146,37.245 -1.087,10.265 -2.839,18.651 -5.265,25.163 -2.427,6.511 -5.492,11.284 -9.199,14.32 -3.708,3.033 -8.079,4.552 -13.115,4.552 -4.93,0 -9.313,-1.49 -13.153,-4.469 -3.84,-2.981 -7.145,-7.728 -9.91,-14.238 -2.767,-6.512 -4.917,-14.898 -6.452,-25.161 -1.54,-10.263 -2.47,-22.735 -2.794,-37.412 -0.322,-14.567 0.058,-26.873 1.15,-36.914 1.091,-10.045 2.879,-18.156 5.361,-24.336 2.485,-6.18 5.585,-10.649 9.299,-13.408 3.716,-2.76 8.037,-4.138 12.969,-4.138"
                   style="fill:#1b466e;fill-opacity:1;fill-rule:nonzero;stroke:none"
                   id="path172"
                   inkscape:connector-curvature="0" /></g></g></g></g><g
           id="g174"><g
             id="g176" /><g
             id="g182"><g
               clip-path="url(#clipPath178)"
               id="g184"
               style="opacity:0.89999402"><g
                 transform="translate(582.918,35.3198)"
                 id="g186"><path
                   d="m 0,0 -139.055,0 c 0.416,18.871 4.479,34.209 12.185,46.019 4.228,6.292 9.831,13.186 16.815,20.692 6.985,7.504 15.601,15.561 25.86,24.169 9.08,7.615 16.757,14.403 23.023,20.361 6.267,5.96 11.317,11.56 15.156,16.804 3.836,5.24 6.626,10.399 8.363,15.476 1.737,5.074 2.674,10.537 2.803,16.388 0.204,9.27 -2.078,16.473 -6.838,21.602 -4.766,5.132 -11.76,7.698 -20.988,7.698 -3.776,0 -7.411,-0.8 -10.907,-2.398 -3.495,-1.603 -6.614,-4.003 -9.36,-7.202 -2.746,-3.202 -5.061,-7.146 -6.946,-11.838 -1.89,-4.689 -3.111,-10.177 -3.667,-16.469 l -38.07,0 c 1.077,10.703 3.492,20.443 7.254,29.217 3.759,8.773 8.668,16.224 14.729,22.349 6.059,6.124 13.163,10.869 21.312,14.236 8.151,3.364 17.102,5.048 26.853,5.048 10.484,0 19.808,-1.599 27.973,-4.801 8.162,-3.202 14.956,-7.614 20.394,-13.244 5.43,-5.628 9.532,-12.249 12.303,-19.865 2.763,-7.613 4.052,-15.888 3.854,-24.829 -0.183,-8.276 -1.399,-15.892 -3.65,-22.845 -2.253,-6.951 -5.544,-13.573 -9.876,-19.864 -4.114,-5.739 -10.197,-12.912 -18.25,-21.52 -8.054,-8.607 -17.911,-17.935 -29.56,-27.976 -3.424,-2.979 -7.811,-6.98 -13.165,-12.001 -5.355,-5.024 -10.631,-11.23 -15.828,-18.624 l 88.091,0 L 0,0 Z"
                   style="fill:#1b466e;fill-opacity:1;fill-rule:nonzero;stroke:none"
                   id="path188"
                   inkscape:connector-curvature="0" /></g></g></g></g><g
           id="g190"><g
             id="g192" /><g
             id="g198"><g
               clip-path="url(#clipPath194)"
               id="g200"
               style="opacity:0.89999402"><g
                 transform="translate(656.8311,64.4546)"
                 id="g202"><path
                   d="m 0,0 c 5.034,0 9.471,1.377 13.305,4.138 3.836,2.758 7.105,7.255 9.816,13.491 2.705,6.234 4.822,14.343 6.356,24.336 1.532,9.986 2.459,22.264 2.778,36.83 0.323,14.568 -0.058,26.985 -1.142,37.246 -1.087,10.264 -2.842,18.65 -5.265,25.162 -2.427,6.511 -5.492,11.284 -9.203,14.321 -3.707,3.033 -8.079,4.551 -13.111,4.551 -4.93,0 -9.312,-1.49 -13.153,-4.469 -3.84,-2.981 -7.146,-7.727 -9.91,-14.238 -2.767,-6.512 -4.921,-14.897 -6.455,-25.161 -1.54,-10.263 -2.467,-22.735 -2.793,-37.412 -0.321,-14.566 0.06,-26.873 1.152,-36.913 1.087,-10.045 2.875,-18.157 5.361,-24.335 2.485,-6.184 5.584,-10.651 9.3,-13.409 C -9.249,1.377 -4.929,0 0,0 m 4.26,193.017 c 11.43,0 21.365,-2.482 29.803,-7.45 8.434,-4.964 15.404,-12.306 20.907,-22.015 5.502,-9.712 9.536,-21.659 12.105,-35.84 2.573,-14.18 3.654,-30.487 3.248,-48.917 C 69.516,42.155 63.16,14.371 51.259,-4.554 39.356,-23.481 22.029,-32.942 -0.726,-32.942 c -22.862,0 -39.773,9.461 -50.731,28.388 -10.965,18.925 -16.036,46.709 -15.228,83.349 0.406,18.43 2.182,34.737 5.327,48.917 3.143,14.181 7.679,26.128 13.612,35.84 5.926,9.709 13.219,17.051 21.875,22.015 8.657,4.968 18.7,7.45 30.131,7.45"
                   style="fill:#1b466e;fill-opacity:1;fill-rule:nonzero;stroke:none"
                   id="path204"
                   inkscape:connector-curvature="0" /></g></g></g></g><g
           id="g206"><g
             id="g208" /><g
             id="g214"><g
               clip-path="url(#clipPath210)"
               id="g216"
               style="opacity:0.80000299"><path
                 d="m 352.851,266.659 -40.097,0 0,225.034 40.097,0 0,-225.034 z"
                 style="fill:#231f20;fill-opacity:1;fill-rule:nonzero;stroke:none"
                 id="path218"
                 inkscape:connector-curvature="0" /><g
                 transform="translate(548.543,266.6592)"
                 id="g220"><path
                   d="m 0,0 -37.97,0 -96.395,150.534 0,-150.534 -38.788,0 0,225.034 38.133,0 95.905,-150.704 0,150.704 39.115,0 L 0,0 Z"
                   style="fill:#231f20;fill-opacity:1;fill-rule:nonzero;stroke:none"
                   id="path222"
                   inkscape:connector-curvature="0" /></g><g
                 transform="translate(736.2168,266.6592)"
                 id="g224"><path
                   d="m 0,0 -165.133,0 0,225.034 160.389,0 0,-38.699 -120.128,0 0,-50.803 112.436,0 0,-38.358 -112.436,0 0,-58.475 L 0,38.699 0,0 Z"
                   style="fill:#231f20;fill-opacity:1;fill-rule:nonzero;stroke:none"
                   id="path226"
                   inkscape:connector-curvature="0" /></g></g></g></g><g
           id="g228"><g
             id="g230" /><g
             id="g236"><g
               clip-path="url(#clipPath232)"
               id="g238"
               style="opacity:0.89999402"><g
                 transform="translate(146.6113,51.542)"
                 id="g240"><path
                   d="m 0,0 -3.266,0.796 c 13.64,1.751 32.44,8.392 48.235,21.699 15.757,13.273 25.84,30.421 30.262,52.413 l 1.505,0 C 72.244,52.575 61.958,34.844 45.936,21.348 29.891,7.831 12.02,2.247 0,0"
                   style="fill:#1c436a;fill-opacity:1;fill-rule:nonzero;stroke:none"
                   id="path242"
                   inkscape:connector-curvature="0" /></g></g></g></g></g></g></g></svg>