<?xml version="1.0" encoding="UTF-8" standalone="no"?>
<svg
   xmlns:dc="http://purl.org/dc/elements/1.1/"
   xmlns:cc="http://creativecommons.org/ns#"
   xmlns:rdf="http://www.w3.org/1999/02/22-rdf-syntax-ns#"
   xmlns:svg="http://www.w3.org/2000/svg"
   xmlns="http://www.w3.org/2000/svg"
   xmlns:sodipodi="http://sodipodi.sourceforge.net/DTD/sodipodi-0.dtd"
   xmlns:inkscape="http://www.inkscape.org/namespaces/inkscape"
   version="1.0"
   x="0px"
   y="0px"
   viewBox="0 0 53 80.625"
   enable-background="new 0 0 53 64.5"
   xml:space="preserve"
   id="svg2"
   inkscape:version="0.91 r13725"
   sodipodi:docname="github_branches.svg"><metadata
     id="metadata14"><rdf:RDF><cc:Work
         rdf:about=""><dc:format>image/svg+xml</dc:format><dc:type
           rdf:resource="http://purl.org/dc/dcmitype/StillImage" /></cc:Work></rdf:RDF></metadata><defs
     id="defs12" /><sodipodi:namedview
     pagecolor="#ffffff"
     bordercolor="#666666"
     borderopacity="1"
     objecttolerance="10"
     gridtolerance="10"
     guidetolerance="10"
     inkscape:pageopacity="0"
     inkscape:pageshadow="2"
     inkscape:window-width="2466"
     inkscape:window-height="1365"
     id="namedview10"
     showgrid="false"
     inkscape:zoom="2.9271318"
     inkscape:cx="-11.591896"
     inkscape:cy="40.3125"
     inkscape:window-x="0"
     inkscape:window-y="0"
     inkscape:window-maximized="1"
     inkscape:current-layer="svg2" /><path
     d="m 50.459576,15.17034 c 0,-5.6816668 -4.197953,-10.3136027 -9.347283,-10.3136027 -5.149331,0 -9.347284,4.6319359 -9.347284,10.3136027 0,4.198922 2.295198,7.820492 5.565558,9.421331 l 0,5.274896 -10.51272,11.599522 -10.441368,-11.520792 0,-5.353626 c 3.258468,-1.613961 5.541774,-5.222409 5.541774,-9.40821 0,-5.6816661 -4.197953,-10.3136021 -9.347284,-10.3136021 -5.1493296,0 -9.3472825,4.6188143 -9.3472825,10.3004811 0,4.198922 2.2951981,7.820492 5.565558,9.421331 l 0,8.68652 0.1189222,0 -0.1189222,0.131216 14.2706615,15.745958 0,7.768006 c -3.282252,1.600839 -5.565558,5.222409 -5.565558,9.421332 0,5.681666 4.197953,10.313602 9.347283,10.313602 5.14933,0 9.347283,-4.631936 9.347283,-10.313602 0,-4.185801 -2.283306,-7.807371 -5.541773,-9.40821 l 0,-7.859858 14.199308,-15.667228 -0.118922,-0.131216 0.190275,0 0,-8.699642 c 3.258468,-1.61396 5.541774,-5.222409 5.541774,-9.408209 z M 12.570969,9.9741736 c 2.592504,0 4.709319,2.3356504 4.709319,5.1961664 0,2.860515 -2.116815,5.196166 -4.709319,5.196166 -2.5925027,0 -4.7093175,-2.335651 -4.7093175,-5.196166 0,-2.860516 2.1168148,-5.1961664 4.7093175,-5.1961664 z M 26.841631,71.540869 c -2.592504,0 -4.709318,-2.335651 -4.709318,-5.196166 0,-2.860516 2.116814,-5.196167 4.709318,-5.196167 2.592504,0 4.709318,2.335651 4.709318,5.196167 0,2.860515 -2.116814,5.196166 -4.709318,5.196166 z M 41.112293,20.366506 c -2.592504,0 -4.709319,-2.335651 -4.709319,-5.196166 0,-2.860516 2.116815,-5.1961664 4.709319,-5.1961664 2.592503,0 4.709318,2.3356504 4.709318,5.1961664 0,2.860515 -2.116815,5.196166 -4.709318,5.196166 z"
     id="path4"
     inkscape:connector-curvature="0"
     style="fill:#000000;fill-opacity:0.47058824" /></svg>